<svg width="575" height="148" viewBox="0 0 575 148" fill="none" xmlns="http://www.w3.org/2000/svg">
<path d="M71.2478 47.7544C67.988 44.5403 64.1378 41.8175 59.6632 40.6285C55.1168 39.4202 50.3969 40.051 46.2368 42.2072C41.7902 44.5124 38.1399 48.1547 34.4174 51.4364C33.5833 52.1723 32.7488 52.9074 31.915 53.6433C31.4475 53.9664 31.0321 54.4211 30.6451 54.7617C29.8737 55.4412 28.7346 56.1113 29.0399 57.3038C29.1548 57.7517 29.4579 58.0691 29.7562 58.4078C30.2558 58.9743 30.7555 59.5413 31.2551 60.1082C32.183 61.1616 33.1113 62.2141 34.0391 63.2667C37.7514 67.4783 41.4632 71.6894 45.1759 75.9006C48.9252 80.1548 52.6748 84.4087 56.4245 88.6625C57.346 89.7083 58.2179 90.88 59.2259 91.8407C59.8764 92.4613 60.7664 92.3812 61.4411 91.8407C61.8428 91.5191 62.2242 91.1661 62.6078 90.8195C62.7322 90.7133 62.8531 90.6048 62.9718 90.4971C63.2904 90.2269 63.6687 89.9585 63.9492 89.6312C64.7334 88.9396 65.5177 88.2483 66.3019 87.557C67.3798 86.6068 68.4578 85.6563 69.5357 84.7057C70.0149 84.2836 70.4938 83.861 70.9734 83.4388C71.2905 83.1592 71.7048 82.8768 72.0048 82.5355C73.613 81.311 75.016 79.5357 76.205 77.9381C77.4939 76.2063 78.5616 74.3116 79.3054 72.2824C80.8705 68.0127 80.6195 63.4104 79.0197 59.1886C77.3714 54.8399 74.5424 51.0022 71.2478 47.7544ZM60.9709 84.2132C59.0792 82.0669 57.1872 79.9208 55.2959 77.7748C51.5837 73.5633 47.8714 69.3518 44.1596 65.1406C42.3034 63.035 40.4473 60.9291 38.5912 58.8235C38.0893 58.254 37.5873 57.6844 37.085 57.1152C38.4358 55.9235 39.7836 54.7288 41.1348 53.5379C42.9357 51.9509 44.7431 50.368 46.7637 49.061C48.661 47.8338 50.7341 46.8481 52.9768 46.469C55.3742 46.0642 57.849 46.4675 60.0597 47.4524C64.3604 49.3671 67.997 53.1592 70.623 56.9935C73.2914 60.8902 74.8463 65.5643 73.3073 70.2063C71.8514 74.5981 68.3527 77.728 64.9874 80.6934C63.6517 81.8703 62.316 83.0469 60.9803 84.2238C60.9773 84.2204 60.9743 84.2166 60.9709 84.2132Z" fill="#EDBEB8"/>
<path d="M96.7426 69.5728C97.0355 69.509 97.3315 69.4046 97.6149 69.2947C98.6815 68.8804 99.699 68.3502 100.636 67.691C102.82 66.1527 104.543 64.0078 105.576 61.5723C105.886 62.1498 106.252 62.6907 106.719 63.156C108.381 64.8144 110.693 64.8492 112.853 64.3246C113.49 64.17 114.565 63.9651 115.382 63.5566C115.404 63.5498 115.423 63.5483 115.445 63.5403C115.826 63.4062 116.116 63.1427 116.289 62.8143C116.438 62.5788 116.506 62.3056 116.459 61.987C116.457 61.9707 116.459 61.9548 116.458 61.9389C116.399 61.3777 116.163 60.81 116.009 60.2684C115.847 59.6992 115.756 59.0185 115.46 58.4985C114.307 56.4685 111.559 59.5189 110.736 57.4576C110.226 56.1805 109.967 54.7533 109.591 53.4309C109.187 52.0098 108.783 50.5886 108.379 49.1675C107.625 46.5162 106.975 43.8127 106.104 41.1973C105.369 38.9904 104.311 36.8618 102.572 35.2721C99.4378 32.4065 95.06 32.0289 91.1039 33.1314C87.1283 34.2388 83.5026 36.6974 81.2201 40.1613C80.6422 41.0381 80.1679 41.9758 79.7854 42.9532C79.4724 43.753 78.9505 44.8612 79.3538 45.7082C79.5945 46.2142 80.0534 46.4417 80.522 46.712C81.1657 47.0835 81.8048 47.4645 82.4537 47.8269C83.2308 48.2608 84.2093 48.3746 84.7974 47.5484C85.0737 47.1599 85.1168 46.6485 85.2483 46.2014C85.4214 45.614 85.638 45.0407 85.9079 44.4911C86.4332 43.4223 87.1218 42.4453 87.9779 41.616C89.6643 39.9829 92.1048 38.8691 94.4605 38.7655C96.8953 38.6582 98.652 39.8828 99.657 42.0481C99.8758 42.5201 100.067 43.0096 100.242 43.5073C99.3543 44.2526 98.4948 45.0448 97.6183 45.7845C96.3488 46.8564 95.0796 47.9282 93.8131 49.0031C91.5586 50.9171 89.1443 52.7509 87.3267 55.1078C85.8062 57.0788 84.715 59.455 84.8341 61.9926C84.9426 64.3125 85.9524 66.6819 87.7711 68.1702C89.4451 69.5403 91.6146 70.0925 93.7511 70.0332C94.4999 70.0124 95.7989 69.955 96.7426 69.5728ZM102.935 56.5679C102.35 58.8908 100.818 61.0039 98.8686 62.3808C97.203 63.5577 94.47 64.6886 92.4789 63.642C90.7872 62.7534 90.9441 60.4324 91.6917 58.9641C92.2699 57.8295 93.2696 56.9556 94.2077 56.1219C95.4655 55.0054 96.737 53.9033 98.0008 52.794C99.2545 51.6938 100.507 50.5932 101.761 49.4926C101.8 49.4586 101.839 49.4242 101.878 49.3902C102.265 50.8098 102.653 52.2282 103.045 53.6463C103.151 54.6358 103.191 55.5512 102.935 56.5679Z" fill="#EDBEB8"/>
<path d="M117.117 20.7032C117.193 21.4088 117.129 22.3397 117.535 22.9554C117.956 23.5945 118.606 23.6947 119.311 23.6316C120.298 23.5435 121.401 23.5246 122.364 23.2903C122.523 23.2517 122.667 23.1901 122.802 23.1153C122.843 23.0937 122.876 23.0643 122.914 23.0389C123.051 22.9463 123.172 22.8356 123.271 22.7025C123.278 22.692 123.289 22.6833 123.296 22.6719C123.355 22.588 123.401 22.4924 123.443 22.3934C123.446 22.3858 123.449 22.379 123.452 22.3715C123.471 22.3257 123.498 22.2868 123.512 22.2377C123.53 22.1783 123.532 22.1213 123.543 22.0627C123.547 22.0457 123.549 22.0283 123.552 22.0109C123.564 21.9323 123.578 21.8533 123.579 21.7766C123.592 21.6231 123.594 21.4663 123.578 21.3049C123.389 19.3913 123.287 18.7552 123.081 16.8435C123.008 16.164 122.992 15.4878 122.43 15.0173C121.814 14.5025 121.064 14.6805 120.329 14.7595C119.039 14.8982 116.803 14.7058 116.673 16.489C116.61 17.356 116.844 18.3232 116.936 19.1876C117.036 20.117 117.017 19.7734 117.117 20.7032Z" fill="#EDBEB8"/>
<path d="M123.945 27.9788C123.331 27.3295 122.509 27.5102 121.71 27.5963C120.831 27.6908 119.699 27.6084 118.901 28.014C118.155 28.3934 118.024 29.1044 118.086 29.8671C118.259 32.0214 118.549 34.1735 118.781 36.3225C119.255 40.7336 119.73 45.1458 120.205 49.5569C120.471 52.0317 120.737 54.5062 121.004 56.981C121.143 58.2721 121.282 59.5632 121.421 60.8547C121.509 61.6782 121.641 62.5142 122.533 62.8253C122.961 62.9746 123.399 62.8911 123.838 62.8438C124.481 62.7747 125.123 62.7058 125.765 62.6367C126.146 62.5959 126.524 62.5592 126.854 62.4318C126.861 62.4296 126.868 62.4258 126.875 62.4232C126.966 62.3869 127.052 62.3419 127.133 62.2894C127.164 62.2708 127.194 62.2535 127.223 62.233C127.232 62.2259 127.24 62.2164 127.249 62.2089C127.332 62.1465 127.412 62.0811 127.482 62.0002C127.892 61.5206 127.83 60.9616 127.768 60.3773C127.646 59.2472 127.525 58.1179 127.403 56.9882C127.16 54.7284 126.916 52.4686 126.673 50.2092C126.198 45.7981 125.723 41.3867 125.248 36.9752C125.011 34.7691 124.773 32.5637 124.535 30.3576C124.452 29.5809 124.523 28.5896 123.945 27.9788Z" fill="#EDBEB8"/>
<path d="M135.724 62.5369C136.421 62.5917 137.118 62.6518 137.816 62.6998C138.216 62.7274 138.595 62.7448 138.954 62.5369C139.358 62.3029 139.587 61.8755 139.641 61.4242C139.657 61.3614 139.683 61.3051 139.693 61.2398C139.895 59.8334 139.92 58.3779 140.031 56.9606C140.249 54.1626 140.467 51.3639 140.685 48.5655C141.13 42.861 141.574 37.8774 142.019 32.1729C142.241 29.3209 142.464 26.4685 142.686 23.6161C142.795 22.2101 142.905 20.8049 143.015 19.3993C143.07 18.6955 143.138 17.9914 143.179 17.2869C143.208 16.8023 143.191 16.3893 142.867 15.9996C142.154 15.142 140.697 15.3227 139.708 15.2459C138.704 15.1681 137.602 14.936 137.048 15.9962C136.808 16.4546 136.83 17.017 136.791 17.5193C136.732 18.2726 136.673 19.0258 136.615 19.7795C136.506 21.1787 136.397 22.5778 136.287 23.977C135.843 29.6818 135.398 35.3859 134.954 41.0903C134.513 46.7453 134.072 51.6791 133.632 57.334C133.576 58.0381 133.522 58.7422 133.467 59.446C133.422 60.0235 133.252 60.7223 133.389 61.2927C133.651 62.3895 134.805 62.4658 135.724 62.5369Z" fill="#EDBEB8"/>
<path d="M144.432 80.3279C148.349 80.8759 151.801 79.1124 154.351 76.218C155.929 74.4276 160.363 68.3797 161.719 66.4222C163.282 64.1677 164.847 61.9151 166.412 59.6622C169.567 55.1218 172.721 50.5811 175.876 46.0408C177.451 43.7734 179.027 41.5061 180.602 39.2388C181.162 38.4326 181.983 37.6173 181.488 36.5855C181.032 35.6327 179.864 35.5892 178.952 35.3742C178.027 35.1565 176.739 34.5638 175.838 35.1402C175.452 35.3874 175.216 35.8202 174.964 36.1887C174.571 36.7654 174.178 37.341 173.785 37.917C172.241 40.1764 170.697 42.4351 169.154 44.6941C166.08 49.1959 163.011 53.7011 159.963 58.221C159.48 54.4506 158.976 50.6831 158.444 46.9199C158.065 44.2398 157.678 41.5613 157.29 38.8827C156.918 36.3168 156.635 33.7195 156.175 31.1683C155.987 30.129 155.391 29.8364 154.416 29.6078C153.797 29.4626 153.179 29.3171 152.56 29.1716C152.03 29.0473 151.431 28.8148 150.88 28.9384C150.227 29.0843 149.772 29.6516 149.691 30.3039C149.628 30.8104 149.775 31.3448 149.85 31.8437C149.962 32.5932 150.074 33.3423 150.187 34.091C150.974 39.3355 151.761 44.58 152.549 49.8241C152.934 52.393 153.32 54.9612 153.705 57.5298L154.283 61.3853C154.38 62.0293 154.477 62.6729 154.573 63.3166C154.661 63.899 154.639 64.6334 155.011 65.1194C155.069 65.1954 155.134 65.2597 155.201 65.3194C155.138 65.4146 155.077 65.5133 155.013 65.6066C153.903 67.2277 149.596 73.2016 147.784 74.1363C145.903 75.1053 143.807 74.2889 142.658 72.629C142.188 71.9498 141.849 71.1882 141.597 70.4036C141.348 69.6239 140.963 68.8838 140.033 68.8211C139.479 68.7833 139.118 69.0853 138.699 69.4043C138.149 69.8231 137.599 70.2411 137.05 70.6606C136.263 71.2615 135.914 71.8372 136.15 72.8388C136.619 74.8309 137.829 76.6829 139.392 77.988C140.124 78.5987 140.928 79.1177 141.795 79.5153C142.407 79.7957 143.226 80.2171 143.969 80.2523C144.122 80.2821 144.278 80.3059 144.432 80.3279Z" fill="#EDBEB8"/>
<path d="M134.123 88.3359C129.105 86.2428 123.317 87.6083 119.872 91.8346C119.773 91.9548 119.684 92.0822 119.59 92.2058C119.458 91.7628 119.298 91.3255 119.103 90.8961C118.043 88.5661 116.062 86.7625 113.711 85.7806C109.19 83.8916 104.078 84.8319 100.586 88.1148C100.628 87.7818 100.669 87.4496 100.711 87.117C100.799 86.4117 101.01 85.618 100.634 84.9566C100.176 84.1482 99.2111 84.2004 98.3974 84.0987C97.0791 83.935 94.8809 83.2887 94.5634 85.1732C94.1957 87.3544 94.0108 89.5832 93.7364 91.7775C93.1718 96.2877 92.6067 100.798 92.0421 105.308C91.7329 107.777 91.4238 110.247 91.1142 112.717C90.9596 113.952 90.8054 115.187 90.6505 116.422C90.5582 117.161 90.4789 117.966 91.1161 118.504C91.4804 118.812 91.9317 118.82 92.3838 118.877C93.0248 118.957 93.6654 119.037 94.306 119.116C94.6141 119.155 94.9111 119.198 95.1984 119.198C95.5865 119.263 95.9902 119.195 96.322 118.937C96.8591 118.52 96.861 117.863 96.9392 117.238C97.0806 116.111 97.2216 114.983 97.3629 113.855C97.6449 111.6 97.9279 109.345 98.2099 107.09C98.5338 104.504 98.8577 101.917 99.1816 99.3302C99.2455 99.0482 99.275 98.7531 99.3298 98.4764C99.4772 97.7326 99.6722 96.9956 99.9284 96.2816C100.398 94.9709 101.09 93.7146 102.053 92.7016C103.993 90.6615 106.904 90.0261 109.58 90.7926C110.892 91.169 112.097 91.9272 112.818 93.1087C113.655 94.4784 113.779 96.1312 113.705 97.697C113.628 99.3427 113.323 100.972 113.119 102.605C112.87 104.585 112.622 106.565 112.374 108.545C112.133 110.471 111.892 112.398 111.651 114.324C111.53 115.287 111.41 116.251 111.289 117.214C111.184 118.054 110.962 118.958 110.981 119.805C111.023 121.631 113.082 121.468 114.403 121.633C114.756 121.677 115.118 121.72 115.465 121.723C115.626 121.764 115.794 121.79 115.97 121.779C117.398 121.691 117.326 120.034 117.458 118.986C117.7 117.05 117.942 115.114 118.185 113.178C118.657 109.407 119.12 105.635 119.603 101.866C119.663 101.592 119.692 101.307 119.745 101.038C119.892 100.297 120.086 99.5618 120.34 98.8494C120.807 97.5394 121.493 96.279 122.449 95.2608C124.385 93.1994 127.294 92.572 129.979 93.3422C131.297 93.7194 132.511 94.4776 133.236 95.6648C134.072 97.0345 134.196 98.6873 134.122 100.253C134.045 101.899 133.74 103.528 133.536 105.161C133.288 107.141 133.04 109.12 132.792 111.1C132.551 113.026 132.309 114.952 132.068 116.879C131.947 117.842 131.827 118.805 131.706 119.768C131.601 120.608 131.379 121.512 131.399 122.359C131.441 124.184 133.498 124.023 134.819 124.188C135.171 124.233 135.534 124.276 135.881 124.28C136.042 124.32 136.209 124.346 136.385 124.335C137.813 124.247 137.742 122.591 137.873 121.542C138.116 119.605 138.358 117.67 138.601 115.733C139.097 111.766 139.582 107.796 140.093 103.83C140.536 100.397 141.001 96.7106 139.519 93.4507C138.458 91.1191 136.476 89.3174 134.123 88.3359Z" fill="#EDBEB8"/>
<path d="M178.377 106.576C177.599 105.948 176.68 104.839 175.591 104.857C174.476 104.875 174.229 105.775 173.992 106.676C173.705 107.765 173.299 108.819 172.728 109.792C170.221 114.074 163.912 115.807 159.422 113.805C156.529 112.515 154.841 109.711 153.859 106.758C153.917 106.744 153.974 106.73 154.032 106.716C155.499 106.378 156.967 106.038 158.435 105.699C164.404 104.321 170.427 103.084 176.361 101.56C177.521 101.262 177.885 100.528 177.782 99.3748C177.682 98.2549 177.479 97.1445 177.174 96.0624C176.533 93.7902 175.473 91.6234 174.044 89.7434C171.135 85.9174 166.783 83.799 161.964 83.9695C157.808 84.1165 153.545 85.7628 150.683 88.839C145.667 94.2309 145.48 102.689 148.063 109.247C149.546 113.014 151.985 116.486 155.585 118.483C157.514 119.552 159.663 120.152 161.854 120.342C163.032 120.445 164.22 120.423 165.394 120.293C166.058 120.22 166.996 120.208 167.697 119.92C168.033 119.848 168.368 119.732 168.681 119.635C169.674 119.328 170.644 118.939 171.573 118.473C175.355 116.572 178.151 113.253 179.495 109.252C179.65 108.79 179.773 108.351 179.617 107.87C179.426 107.284 178.831 106.941 178.377 106.576ZM167.726 97.7874C164.74 98.4768 161.754 99.1662 158.768 99.8559C157.249 100.207 155.73 100.557 154.211 100.909C153.724 101.021 153.236 101.133 152.749 101.246C152.519 98.1374 153.067 94.9947 155.368 92.6658C158.206 89.7929 163.25 88.8533 166.705 91.1309C168.329 92.2016 169.489 93.8476 170.331 95.5741C170.564 96.0526 170.771 96.5428 170.959 97.0409C169.881 97.2892 168.803 97.5387 167.726 97.7874Z" fill="#EDBEB8"/>
<path d="M216.954 94.1674C216.951 94.0903 216.942 94.0124 216.927 93.9342C216.923 93.9172 216.921 93.9002 216.917 93.8832C216.889 93.7581 216.852 93.6337 216.796 93.5102C216.55 92.9769 216.228 92.467 215.947 91.9511C215.677 91.4545 215.445 90.8445 215.017 90.4597C214.196 89.7197 213.368 90.1641 212.551 90.6222C212.148 90.8478 211.637 91.1816 211.153 91.1347C210.489 91.0705 210.086 90.2915 209.8 89.7733C208.481 87.3862 207.239 84.9495 205.934 82.5522C204.699 80.2818 203.545 77.9457 202.212 75.7301C201.027 73.7595 199.55 71.9381 197.534 70.7702C193.596 68.4885 188.946 69.2868 185.181 71.5209C181.637 73.6242 178.74 76.9176 177.472 80.8748C177.163 81.8393 176.951 82.8413 176.846 83.8489C176.753 84.7318 176.622 85.8127 177.489 86.3721C177.97 86.6817 178.651 86.7894 179.19 86.9568C179.788 87.1435 180.405 87.4024 181.023 87.5101C181.834 87.6523 182.696 87.2301 182.899 86.3873C183.022 85.8778 182.952 85.2965 183.007 84.7749C183.075 84.1282 183.197 83.4899 183.378 82.8659C183.708 81.7365 184.216 80.6703 184.911 79.7202C186.269 77.8625 188.45 76.3322 190.71 75.8367C193.133 75.3045 195.043 76.4414 196.413 78.3845C196.627 78.6883 196.82 79.0104 197.018 79.3278C196.984 79.3755 196.95 79.4265 196.915 79.473C196.398 80.1567 195.88 80.8404 195.363 81.5238C194.392 82.805 193.422 84.0867 192.454 85.3698C190.641 87.7728 188.631 90.1324 187.251 92.8226C186.084 95.096 185.377 97.6877 185.923 100.239C186.421 102.567 187.906 104.803 190.019 105.956C191.913 106.989 194.135 107.128 196.214 106.654C196.95 106.486 198.259 106.162 199.166 105.585C199.907 105.317 200.647 104.655 201.182 104.221C202.052 103.515 202.836 102.697 203.516 101.807C204.868 100.035 205.783 97.9367 206.179 95.7492C206.644 96.279 207.162 96.7507 207.778 97.0984C209.7 98.1865 211.821 97.8241 213.73 96.8992C214.372 96.5886 215.474 96.126 216.209 95.4989C216.243 95.4778 216.275 95.4661 216.308 95.4426C216.745 95.1403 216.955 94.7014 216.956 94.2335C216.957 94.212 216.955 94.1893 216.954 94.1674ZM195.192 100.661C192.786 100.986 191.41 98.6401 191.931 96.4873C192.253 95.1554 193.125 93.9705 193.914 92.8778C194.87 91.5542 195.837 90.2378 196.798 88.9172C197.754 87.6039 198.709 86.2897 199.664 84.976C199.74 84.8724 199.815 84.7688 199.89 84.6653C200.636 86.0852 201.381 87.506 202.134 88.9214C202.431 89.7714 202.549 90.6838 202.512 91.5796C202.346 95.5008 199.33 100.101 195.192 100.661Z" fill="#EDBEB8"/>
<path d="M228.175 83.0465C228.147 82.7611 228.023 82.4852 227.759 82.2297C227.681 82.1352 227.599 82.043 227.509 81.9549C226.504 80.976 225.477 80.0187 224.461 79.0507C222.429 77.1153 220.397 75.179 218.364 73.2431C214.261 69.334 210.157 65.4244 206.054 61.5156C204.022 59.5794 201.99 57.6435 199.957 55.7076C198.937 54.7352 197.916 53.7623 196.895 52.7899C196.384 52.3031 195.878 51.8102 195.361 51.3287C194.999 50.9912 194.638 50.6933 194.122 50.6582C193.002 50.5822 192.252 51.7943 191.574 52.5053C190.912 53.1996 189.967 53.9369 190.298 55.0228C190.437 55.4793 190.819 55.7848 191.152 56.1019C191.699 56.6231 192.246 57.1443 192.793 57.6655C193.809 58.6338 194.826 59.6017 195.841 60.5696C199.945 64.4792 204.048 68.3887 208.152 72.2979C212.219 76.1719 216.285 80.0467 220.352 83.9207C221.339 84.8618 222.292 85.9352 223.363 86.7788C224.196 87.4345 225.043 87.1945 225.739 86.4972C226.252 85.9832 227.249 85.152 227.799 84.2793C227.883 84.1867 227.96 84.0877 228.02 83.9781C228.201 83.6508 228.234 83.3402 228.175 83.0465Z" fill="#EDBEB8"/>
<path d="M128.684 147.132C112.05 147.132 95.2808 144.461 78.8417 139.194C64.532 134.61 50.4684 127.976 38.1709 120.009C26.951 112.741 17.4036 104.549 10.5607 96.3202C3.65214 88.0116 0.000366211 80.2591 0.000366211 73.9C0.000366211 67.5406 3.65214 59.788 10.5607 51.4791C17.4036 43.2507 26.951 35.059 38.1709 27.7906C50.4684 19.8241 64.532 13.1902 78.8417 8.60528C95.2808 3.33813 112.05 0.667908 128.684 0.667908C145.318 0.667908 162.087 3.33813 178.526 8.60528C192.836 13.1902 206.899 19.8241 219.197 27.7906C230.417 35.059 239.964 43.2507 246.807 51.4791C253.716 59.788 257.367 67.5406 257.367 73.9C257.367 80.2591 253.716 88.0116 246.807 96.3202C239.964 104.549 230.417 112.741 219.197 120.009C206.899 127.976 192.836 134.61 178.526 139.194C162.087 144.461 145.318 147.132 128.684 147.132ZM128.684 6.54205C112.659 6.54205 96.4925 9.11856 80.6339 14.1998C66.8115 18.6279 53.2327 25.0323 41.3647 32.7206C30.6361 39.6711 21.5459 47.4569 15.0777 55.2352C9.14304 62.3725 5.87451 69.001 5.87451 73.9C5.87451 78.7987 9.14304 85.4272 15.0777 92.5641C21.5459 100.343 30.6361 108.129 41.3647 115.079C53.2327 122.767 66.8115 129.172 80.6339 133.6C96.4925 138.681 112.659 141.257 128.684 141.257C144.709 141.257 160.876 138.681 176.734 133.6C190.556 129.172 204.135 122.767 216.003 115.079C226.732 108.129 235.822 100.343 242.29 92.5641C248.225 85.4272 251.493 78.7987 251.493 73.9C251.493 69.001 248.225 62.3725 242.29 55.2352C235.822 47.4569 226.732 39.6711 216.003 32.7206C204.135 25.0323 190.556 18.6279 176.734 14.1998C160.876 9.11856 144.709 6.54205 128.684 6.54205Z" fill="#EDBEB8"/>
<path d="M334.951 73.0659C334.951 73.1645 334.925 73.2628 334.862 73.3346C334.799 73.4151 334.683 73.4869 334.522 73.5315C334.352 73.5852 334.137 73.6301 333.859 73.657C333.59 73.6838 333.241 73.6925 332.821 73.6925C332.337 73.6925 331.934 73.6748 331.63 73.6389C331.325 73.6033 331.075 73.5584 330.878 73.4956C330.69 73.4329 330.546 73.3524 330.466 73.2628C330.376 73.1645 330.314 73.0572 330.278 72.9317L327.771 66.8168C327.458 66.0288 327.126 65.3575 326.768 64.7845C326.41 64.2203 325.999 63.755 325.524 63.4058C325.058 63.0566 324.53 62.806 323.93 62.6446C323.339 62.4923 322.668 62.4117 321.898 62.4117H320.071V73.039C320.071 73.1286 320.027 73.2091 319.937 73.2987C319.848 73.3883 319.722 73.4597 319.543 73.5047C319.364 73.5583 319.141 73.6033 318.854 73.6389C318.576 73.6748 318.254 73.6925 317.887 73.6925C317.511 73.6925 317.189 73.6748 316.911 73.6389C316.625 73.6033 316.401 73.5583 316.222 73.5047C316.042 73.4597 315.917 73.3883 315.837 73.2987C315.756 73.2091 315.72 73.1196 315.72 73.039V49.0451C315.72 48.9646 315.756 48.875 315.837 48.8032C315.917 48.7227 316.042 48.6513 316.222 48.6063C316.401 48.5526 316.625 48.508 316.911 48.4812C317.189 48.454 317.511 48.4453 317.887 48.4453C318.254 48.4453 318.576 48.454 318.854 48.4812C319.141 48.508 319.364 48.5526 319.543 48.6063C319.722 48.6513 319.848 48.7227 319.937 48.8032C320.027 48.875 320.071 48.9646 320.071 49.0541V58.9739H321.898C322.552 58.9739 323.16 58.9025 323.707 58.7501C324.252 58.5978 324.754 58.3563 325.201 58.0158C325.658 57.6669 326.061 57.2281 326.41 56.682C326.768 56.1359 327.099 55.4824 327.395 54.7121L329.58 49.2598C329.616 49.1165 329.678 49.0001 329.759 48.8928C329.848 48.7854 329.983 48.6959 330.153 48.6331C330.332 48.5617 330.565 48.508 330.851 48.4812C331.138 48.454 331.522 48.4453 331.997 48.4453C332.409 48.4453 332.758 48.454 333.027 48.4812C333.295 48.508 333.51 48.5526 333.662 48.6063C333.806 48.6513 333.904 48.7227 333.957 48.8032C334.011 48.875 334.038 48.9646 334.038 49.0451C334.038 49.2061 334.02 49.3762 333.976 49.5463C333.931 49.7254 333.868 49.9223 333.779 50.1552L331.522 55.3569C331.173 56.2341 330.797 56.9685 330.385 57.5683C329.973 58.159 329.562 58.6606 329.141 59.0544C328.729 59.4486 328.3 59.7529 327.861 59.9766C327.431 60.1917 327.01 60.3617 326.607 60.4868V60.5405C327.216 60.7465 327.78 60.9975 328.299 61.2927C328.818 61.5973 329.293 61.9643 329.741 62.394C330.188 62.8328 330.6 63.3521 330.985 63.9606C331.37 64.5604 331.728 65.2498 332.068 66.0378L334.665 72.0186C334.736 72.135 334.781 72.2514 334.817 72.3587C334.853 72.457 334.88 72.5647 334.898 72.6543C334.916 72.7525 334.933 72.8331 334.942 72.8958C334.951 72.9585 334.951 73.0122 334.951 73.0659ZM351.371 73.5315L348.229 82.2248C348.121 82.5026 347.852 82.7173 347.423 82.8696C347.002 83.0215 346.349 83.0933 345.471 83.0933C345.014 83.0933 344.647 83.0756 344.37 83.0306C344.092 82.986 343.878 82.9055 343.725 82.8068C343.582 82.6995 343.502 82.5563 343.484 82.3862C343.466 82.207 343.511 82.0011 343.609 81.7505L346.868 73.5315C346.707 73.4597 346.555 73.3437 346.42 73.1914C346.277 73.03 346.179 72.869 346.134 72.6898L337.709 50.1283C337.566 49.7613 337.503 49.4657 337.503 49.2598C337.503 49.0451 337.566 48.8837 337.709 48.7586C337.852 48.6331 338.076 48.5526 338.389 48.508C338.703 48.4631 339.123 48.4453 339.652 48.4453C340.171 48.4453 340.583 48.454 340.887 48.4812C341.183 48.508 341.416 48.5617 341.594 48.6331C341.764 48.6959 341.89 48.8032 341.97 48.9287C342.051 49.0629 342.132 49.242 342.221 49.4658L348.963 68.4103H349.043L355.543 49.3675C355.651 49.0269 355.776 48.8123 355.928 48.7227C356.071 48.6244 356.295 48.5526 356.591 48.508C356.895 48.4631 357.325 48.4453 357.88 48.4453C358.372 48.4453 358.775 48.4631 359.089 48.508C359.402 48.5526 359.635 48.6331 359.778 48.7586C359.93 48.8837 360.002 49.0451 360.002 49.2598C360.002 49.4657 359.948 49.7345 359.849 50.0478L351.371 73.5315ZM382.617 72.878C382.617 73.0213 382.581 73.1377 382.51 73.236C382.438 73.3255 382.331 73.4151 382.169 73.4869C382.017 73.5493 381.793 73.6033 381.516 73.6389C381.238 73.6748 380.889 73.6925 380.468 73.6925C380.029 73.6925 379.672 73.6748 379.394 73.6389C379.116 73.6033 378.893 73.5493 378.723 73.4869C378.562 73.4151 378.445 73.3255 378.373 73.236C378.302 73.1377 378.266 73.0213 378.266 72.878V52.2592H371.766C371.489 55.0345 371.148 57.5056 370.754 59.6724C370.36 61.8388 369.922 63.7278 369.429 65.3394C368.937 66.9423 368.382 68.3029 367.773 69.4043C367.164 70.5053 366.493 71.3919 365.767 72.0632C365.033 72.7348 364.245 73.2182 363.395 73.5137C362.553 73.8089 361.64 73.9612 360.682 73.9612C360.521 73.9612 360.387 73.9344 360.271 73.8807C360.163 73.8271 360.065 73.7375 359.993 73.5942C359.93 73.4597 359.876 73.2628 359.841 73.0031C359.805 72.7526 359.787 72.4301 359.787 72.0272C359.787 71.6066 359.796 71.2664 359.823 71.0068C359.849 70.7471 359.894 70.5321 359.957 70.3801C360.02 70.2187 360.1 70.1205 360.19 70.0668C360.288 70.0131 360.405 69.9859 360.548 69.9859C361.13 69.9859 361.676 69.8517 362.204 69.5834C362.723 69.3056 363.216 68.8581 363.672 68.2402C364.129 67.6226 364.559 66.8077 364.962 65.805C365.356 64.7932 365.723 63.5577 366.063 62.0897C366.394 60.6214 366.707 58.9025 367.003 56.9326C367.299 54.9718 367.585 52.7067 367.845 50.1552C367.881 49.6272 368.006 49.242 368.229 48.9824C368.445 48.7318 368.758 48.6063 369.161 48.6063H381.283C381.695 48.6063 382.026 48.7318 382.259 48.9914C382.501 49.242 382.617 49.6272 382.617 50.1552V72.878ZM411.643 72.9049C411.643 73.03 411.607 73.1464 411.535 73.245C411.463 73.3524 411.356 73.4329 411.195 73.4956C411.043 73.5584 410.819 73.6033 410.541 73.6389C410.264 73.6748 409.915 73.6925 409.494 73.6925C409.073 73.6925 408.724 73.6748 408.446 73.6389C408.169 73.6033 407.936 73.5584 407.766 73.4956C407.587 73.4329 407.47 73.3524 407.399 73.245C407.327 73.1377 407.292 73.03 407.292 72.9049V59.314C407.292 58.6247 407.309 57.9353 407.345 57.2191C407.381 56.5119 407.426 55.8226 407.479 55.1332C407.077 55.8403 406.629 56.5206 406.154 57.2013C405.671 57.8726 405.188 58.5442 404.704 59.2067L394.704 72.9049C394.578 73.0481 394.471 73.1645 394.372 73.2719C394.274 73.3792 394.148 73.4597 394.005 73.5224C393.853 73.5852 393.665 73.6301 393.432 73.657C393.208 73.6838 392.922 73.6925 392.591 73.6925C392.206 73.6925 391.883 73.6748 391.642 73.6389C391.391 73.6033 391.194 73.5584 391.051 73.4956C390.899 73.4329 390.791 73.3524 390.729 73.245C390.666 73.1377 390.639 73.03 390.639 72.9049V49.2329C390.639 49.1078 390.666 49.0001 390.729 48.8928C390.791 48.7854 390.907 48.6959 391.077 48.6331C391.239 48.5617 391.463 48.508 391.749 48.4812C392.026 48.454 392.367 48.4453 392.779 48.4453C393.62 48.4453 394.202 48.508 394.516 48.6422C394.829 48.7764 394.99 48.9733 394.99 49.2329V62.9042C394.99 63.5845 394.972 64.2653 394.936 64.9365C394.9 65.6172 394.856 66.2797 394.802 66.951C395.205 66.2797 395.617 65.635 396.029 64.9902C396.432 64.3548 396.879 63.7278 397.345 63.1193L407.479 49.2329C407.578 49.0897 407.685 48.9733 407.802 48.875C407.918 48.7764 408.052 48.6959 408.223 48.6422C408.384 48.5795 408.581 48.5435 408.814 48.5167C409.037 48.4899 409.333 48.4721 409.7 48.4721C410.067 48.4721 410.38 48.4899 410.631 48.5167C410.891 48.5435 411.087 48.5885 411.24 48.6599C411.383 48.7318 411.49 48.8123 411.553 48.9196C411.616 49.0269 411.643 49.1434 411.643 49.2866V72.9049ZM440.355 72.878C440.355 73.0213 440.319 73.1377 440.248 73.236C440.176 73.3255 440.068 73.4151 439.907 73.4869C439.746 73.5493 439.531 73.6033 439.245 73.6389C438.967 73.6748 438.618 73.6925 438.197 73.6925C437.75 73.6925 437.392 73.6748 437.114 73.6389C436.827 73.6033 436.613 73.5493 436.451 73.4869C436.29 73.4151 436.183 73.3255 436.111 73.236C436.04 73.1377 436.004 73.0213 436.004 72.878V62.5195H424.025V72.878C424.025 73.0213 423.989 73.1377 423.917 73.236C423.846 73.3255 423.738 73.4151 423.577 73.4869C423.416 73.5493 423.201 73.6033 422.915 73.6389C422.637 73.6748 422.279 73.6925 421.84 73.6925C421.41 73.6925 421.061 73.6748 420.784 73.6389C420.497 73.6033 420.274 73.5493 420.112 73.4869C419.942 73.4151 419.826 73.3255 419.763 73.236C419.701 73.1377 419.674 73.0213 419.674 72.878V49.2598C419.674 49.1165 419.701 49.0001 419.763 48.9019C419.826 48.8123 419.942 48.7227 420.112 48.6422C420.274 48.5617 420.497 48.508 420.784 48.4812C421.061 48.454 421.41 48.4453 421.84 48.4453C422.279 48.4453 422.637 48.454 422.915 48.4812C423.201 48.508 423.416 48.5617 423.577 48.6422C423.738 48.7227 423.846 48.8123 423.917 48.9019C423.989 49.0001 424.025 49.1165 424.025 49.2598V58.8666H436.004V49.2598C436.004 49.1165 436.04 49.0001 436.111 48.9019C436.183 48.8123 436.29 48.7227 436.451 48.6422C436.613 48.5617 436.827 48.508 437.114 48.4812C437.392 48.454 437.75 48.4453 438.197 48.4453C438.618 48.4453 438.967 48.454 439.245 48.4812C439.531 48.508 439.746 48.5617 439.907 48.6422C440.068 48.7227 440.176 48.8123 440.248 48.9019C440.319 49.0001 440.355 49.1165 440.355 49.2598V72.878ZM466.176 72.9049C466.176 73.1109 466.104 73.2719 465.97 73.3792C465.827 73.4869 465.638 73.5584 465.388 73.612C465.146 73.6657 464.788 73.6925 464.313 73.6925C463.866 73.6925 463.499 73.6657 463.23 73.612C462.961 73.5584 462.765 73.4869 462.639 73.3792C462.514 73.2719 462.451 73.1196 462.451 72.9049V70.5412C461.422 71.6425 460.276 72.502 459.004 73.1108C457.733 73.7106 456.39 74.0149 454.975 74.0149C453.731 74.0149 452.603 73.8539 451.6 73.5315C450.597 73.2091 449.738 72.7348 449.031 72.1259C448.323 71.517 447.768 70.7562 447.374 69.8699C446.98 68.9745 446.784 67.9627 446.784 66.8259C446.784 65.4917 447.052 64.3367 447.598 63.3608C448.135 62.3762 448.914 61.5614 449.935 60.9166C450.947 60.2722 452.191 59.7797 453.659 59.4573C455.128 59.1349 456.784 58.9739 458.619 58.9739H461.878V57.1295C461.878 56.2254 461.78 55.4196 461.592 54.7121C461.395 54.014 461.09 53.432 460.66 52.9664C460.231 52.5007 459.676 52.1519 458.995 51.9191C458.315 51.6772 457.473 51.5607 456.48 51.5607C455.414 51.5607 454.456 51.6862 453.615 51.9459C452.764 52.2055 452.021 52.483 451.385 52.7963C450.75 53.1096 450.212 53.3874 449.783 53.647C449.362 53.9067 449.04 54.0318 448.834 54.0318C448.69 54.0318 448.565 53.9959 448.467 53.9245C448.359 53.8617 448.27 53.7544 448.189 53.6111C448.109 53.477 448.055 53.2978 448.019 53.0828C447.983 52.859 447.965 52.6262 447.965 52.3575C447.965 51.9277 447.992 51.5789 448.055 51.3279C448.117 51.0773 448.27 50.8354 448.502 50.6117C448.735 50.3879 449.147 50.1192 449.72 49.8059C450.293 49.5017 450.964 49.2152 451.717 48.9555C452.46 48.7049 453.283 48.4899 454.179 48.3198C455.065 48.1497 455.969 48.0692 456.873 48.0692C458.565 48.0692 460.007 48.2571 461.198 48.6422C462.388 49.027 463.347 49.6003 464.081 50.3434C464.815 51.0864 465.343 52.0086 465.674 53.1096C466.005 54.211 466.176 55.5001 466.176 56.9685V72.9049ZM461.878 62.0897H458.181C456.999 62.0897 455.969 62.188 455.092 62.394C454.224 62.5909 453.498 62.8952 452.916 63.2894C452.343 63.6832 451.923 64.1488 451.645 64.7037C451.376 65.2589 451.242 65.8946 451.242 66.6108C451.242 67.8373 451.627 68.8132 452.406 69.5384C453.185 70.2637 454.268 70.6307 455.674 70.6307C456.802 70.6307 457.858 70.3442 458.825 69.7622C459.792 69.1892 460.813 68.3029 461.878 67.1123V62.0897ZM495.828 60.6838C495.828 62.7519 495.604 64.6054 495.157 66.2529C494.718 67.891 494.064 69.2878 493.196 70.4338C492.336 71.5797 491.262 72.466 489.991 73.084C488.719 73.7016 487.26 74.0149 485.622 74.0149C484.924 74.0149 484.279 73.9435 483.688 73.8089C483.088 73.6657 482.515 73.451 481.942 73.1464C481.378 72.8512 480.814 72.4751 480.259 72.0186C479.695 71.5707 479.104 71.0336 478.477 70.4248V82.2516C478.477 82.3949 478.441 82.5113 478.37 82.6186C478.298 82.7264 478.191 82.8159 478.03 82.8873C477.868 82.9501 477.654 83.0038 477.367 83.0397C477.089 83.0756 476.731 83.0933 476.293 83.0933C475.863 83.0933 475.514 83.0756 475.236 83.0397C474.95 83.0038 474.726 82.9501 474.565 82.8873C474.395 82.8159 474.278 82.7264 474.216 82.6186C474.153 82.5113 474.126 82.3949 474.126 82.2516V49.2598C474.126 49.0988 474.153 48.9733 474.207 48.875C474.26 48.7854 474.368 48.6959 474.52 48.6331C474.681 48.5617 474.878 48.508 475.129 48.4812C475.37 48.454 475.675 48.4453 476.024 48.4453C476.391 48.4453 476.695 48.454 476.937 48.4812C477.17 48.508 477.367 48.5617 477.528 48.6244C477.689 48.6959 477.797 48.7854 477.86 48.875C477.922 48.9733 477.949 49.0988 477.949 49.2598V52.4202C478.665 51.6862 479.355 51.0505 480.017 50.5044C480.679 49.9673 481.351 49.5194 482.023 49.1615C482.694 48.8032 483.383 48.5258 484.091 48.3466C484.798 48.1588 485.541 48.0692 486.329 48.0692C488.039 48.0692 489.49 48.4003 490.698 49.0629C491.898 49.7345 492.882 50.6385 493.644 51.7936C494.404 52.9486 494.96 54.2914 495.309 55.8225C495.658 57.3532 495.828 58.9739 495.828 60.6838ZM491.316 61.1853C491.316 59.9766 491.226 58.8038 491.038 57.6756C490.859 56.5478 490.537 55.5447 490.098 54.6675C489.651 53.7903 489.051 53.0918 488.299 52.5635C487.546 52.0355 486.607 51.7758 485.487 51.7758C484.924 51.7758 484.377 51.8563 483.831 52.0264C483.294 52.1965 482.739 52.4561 482.175 52.8144C481.62 53.1723 481.029 53.647 480.42 54.2378C479.811 54.8285 479.157 55.5538 478.477 56.4133V65.805C479.668 67.2643 480.796 68.3747 481.861 69.1533C482.936 69.9236 484.055 70.3083 485.228 70.3083C486.311 70.3083 487.242 70.0487 488.021 69.5207C488.8 68.9923 489.427 68.2939 489.91 67.4166C490.394 66.5394 490.743 65.5635 490.976 64.4712C491.199 63.3876 491.316 62.2867 491.316 61.1853ZM523.027 72.878C523.027 73.0213 522.992 73.1377 522.92 73.236C522.848 73.3255 522.741 73.4151 522.58 73.4869C522.419 73.5493 522.204 73.6033 521.917 73.6389C521.64 73.6748 521.291 73.6925 520.869 73.6925C520.422 73.6925 520.064 73.6748 519.786 73.6389C519.5 73.6033 519.285 73.5493 519.124 73.4869C518.963 73.4151 518.855 73.3255 518.784 73.236C518.712 73.1377 518.676 73.0213 518.676 72.878V62.5195H506.697V72.878C506.697 73.0213 506.661 73.1377 506.59 73.236C506.518 73.3255 506.411 73.4151 506.249 73.4869C506.088 73.5493 505.873 73.6033 505.587 73.6389C505.309 73.6748 504.951 73.6925 504.512 73.6925C504.083 73.6925 503.733 73.6748 503.456 73.6389C503.17 73.6033 502.946 73.5493 502.784 73.4869C502.614 73.4151 502.498 73.3255 502.436 73.236C502.373 73.1377 502.346 73.0213 502.346 72.878V49.2598C502.346 49.1165 502.373 49.0001 502.436 48.9019C502.498 48.8123 502.614 48.7227 502.784 48.6422C502.946 48.5617 503.17 48.508 503.456 48.4812C503.733 48.454 504.083 48.4453 504.512 48.4453C504.951 48.4453 505.309 48.454 505.587 48.4812C505.873 48.508 506.088 48.5617 506.249 48.6422C506.411 48.7227 506.518 48.8123 506.59 48.9019C506.661 49.0001 506.697 49.1165 506.697 49.2598V58.8666H518.676V49.2598C518.676 49.1165 518.712 49.0001 518.784 48.9019C518.855 48.8123 518.963 48.7227 519.124 48.6422C519.285 48.5617 519.5 48.508 519.786 48.4812C520.064 48.454 520.422 48.4453 520.869 48.4453C521.291 48.4453 521.64 48.454 521.917 48.4812C522.204 48.508 522.419 48.5617 522.58 48.6422C522.741 48.7227 522.848 48.8123 522.92 48.9019C522.992 49.0001 523.027 49.1165 523.027 49.2598V72.878ZM548.848 72.9049C548.848 73.1109 548.776 73.2719 548.642 73.3792C548.499 73.4869 548.311 73.5584 548.06 73.612C547.818 73.6657 547.46 73.6925 546.986 73.6925C546.538 73.6925 546.171 73.6657 545.902 73.612C545.634 73.5584 545.437 73.4869 545.312 73.3792C545.186 73.2719 545.123 73.1196 545.123 72.9049V70.5412C544.094 71.6425 542.948 72.502 541.677 73.1108C540.405 73.7106 539.062 74.0149 537.648 74.0149C536.403 74.0149 535.275 73.8539 534.272 73.5315C533.27 73.2091 532.41 72.7348 531.703 72.1259C530.996 71.517 530.441 70.7562 530.046 69.8699C529.653 68.9745 529.456 67.9627 529.456 66.8259C529.456 65.4917 529.724 64.3367 530.27 63.3608C530.808 62.3762 531.587 61.5614 532.607 60.9166C533.619 60.2722 534.863 59.7797 536.332 59.4573C537.8 59.1349 539.456 58.9739 541.292 58.9739H544.55V57.1295C544.55 56.2254 544.452 55.4196 544.264 54.7121C544.067 54.014 543.762 53.432 543.333 52.9664C542.903 52.5007 542.348 52.1519 541.667 51.9191C540.987 51.6772 540.145 51.5607 539.152 51.5607C538.086 51.5607 537.129 51.6862 536.287 51.9459C535.436 52.2055 534.693 52.483 534.058 52.7963C533.422 53.1096 532.885 53.3874 532.455 53.647C532.034 53.9067 531.712 54.0318 531.506 54.0318C531.363 54.0318 531.237 53.9959 531.139 53.9245C531.031 53.8617 530.942 53.7544 530.861 53.6111C530.781 53.477 530.727 53.2978 530.691 53.0828C530.655 52.859 530.638 52.6262 530.638 52.3575C530.638 51.9277 530.664 51.5789 530.727 51.3279C530.79 51.0773 530.942 50.8354 531.175 50.6117C531.407 50.3879 531.819 50.1192 532.392 49.8059C532.965 49.5017 533.637 49.2152 534.389 48.9555C535.132 48.7049 535.955 48.4899 536.851 48.3198C537.737 48.1497 538.642 48.0692 539.546 48.0692C541.238 48.0692 542.679 48.2571 543.87 48.6422C545.061 49.027 546.019 49.6003 546.753 50.3434C547.487 51.0864 548.015 52.0086 548.347 53.1096C548.678 54.211 548.848 55.5001 548.848 56.9685V72.9049ZM544.55 62.0897H540.853C539.671 62.0897 538.642 62.188 537.764 62.394C536.896 62.5909 536.17 62.8952 535.588 63.2894C535.015 63.6832 534.595 64.1488 534.317 64.7037C534.049 65.2589 533.914 65.8946 533.914 66.6108C533.914 67.8373 534.299 68.8132 535.078 69.5384C535.857 70.2637 536.94 70.6307 538.346 70.6307C539.474 70.6307 540.531 70.3442 541.497 69.7622C542.465 69.1892 543.485 68.3029 544.55 67.1123V62.0897ZM574.203 72.878C574.203 73.0213 574.176 73.1377 574.114 73.245C574.051 73.3524 573.943 73.4329 573.782 73.4956C573.621 73.5584 573.406 73.6033 573.12 73.6389C572.842 73.6748 572.475 73.6925 572.019 73.6925C571.589 73.6925 571.24 73.6748 570.962 73.6389C570.675 73.6033 570.452 73.5584 570.291 73.4956C570.12 73.4329 570.004 73.3524 569.941 73.245C569.879 73.1464 569.852 73.0213 569.852 72.878V62.9492H567.363C566.279 62.9492 565.438 63.0384 564.829 63.2089C564.229 63.3877 563.683 63.6741 563.208 64.0861C562.725 64.4981 562.295 65.0261 561.911 65.6618C561.525 66.2975 561.158 67.0765 560.809 68.0074L558.893 72.6184C558.804 72.8421 558.714 73.03 558.607 73.1645C558.499 73.3077 558.347 73.4151 558.15 73.4956C557.953 73.5761 557.693 73.6301 557.389 73.657C557.085 73.6838 556.709 73.6925 556.252 73.6925C555.93 73.6925 555.634 73.6838 555.384 73.6657C555.133 73.6479 554.918 73.6211 554.739 73.5761C554.569 73.5315 554.435 73.4597 554.354 73.3615C554.265 73.2719 554.22 73.1464 554.22 73.0122C554.22 72.8867 554.265 72.6898 554.363 72.4215C554.462 72.1528 554.658 71.6784 554.954 70.9977L556.843 66.5662C557.335 65.4471 557.935 64.4799 558.651 63.6741C559.368 62.8596 560.191 62.2598 561.123 61.8747C559.421 61.5614 558.079 60.8811 557.067 59.8424C556.064 58.7948 555.563 57.416 555.563 55.6971C555.563 54.5602 555.796 53.5306 556.27 52.6084C556.745 51.6862 557.434 50.9072 558.356 50.2715C559.269 49.6271 560.397 49.1347 561.74 48.7945C563.074 48.454 564.605 48.2839 566.342 48.2839C566.754 48.2839 567.247 48.2929 567.793 48.3107C568.348 48.3289 568.912 48.3557 569.493 48.3916C570.085 48.4271 570.648 48.4631 571.204 48.508C571.75 48.5526 572.224 48.5885 572.627 48.6244C573.155 48.6781 573.549 48.8659 573.809 49.2061C574.069 49.5376 574.203 49.9492 574.203 50.4329V72.878ZM569.852 51.7758C569.225 51.6862 568.58 51.6235 567.918 51.5966C567.264 51.5698 566.655 51.5607 566.092 51.5607C564.91 51.5607 563.925 51.6594 563.137 51.8654C562.34 52.0623 561.713 52.3575 561.23 52.7335C560.756 53.1096 560.415 53.5575 560.218 54.0677C560.013 54.5689 559.914 55.1332 559.914 55.7507C559.914 56.3774 560.03 56.9507 560.263 57.4519C560.505 57.9534 560.854 58.3741 561.338 58.7143C561.812 59.0544 562.43 59.3231 563.173 59.5023C563.925 59.6901 564.963 59.7797 566.307 59.7797H569.852V51.7758ZM335.112 118.505C335.112 118.648 335.077 118.765 335.005 118.863C334.933 118.953 334.826 119.042 334.665 119.114C334.513 119.176 334.289 119.231 334.011 119.266C333.734 119.302 333.384 119.32 332.964 119.32C332.525 119.32 332.167 119.302 331.89 119.266C331.612 119.231 331.388 119.176 331.218 119.114C331.057 119.042 330.941 118.953 330.869 118.863C330.797 118.765 330.761 118.648 330.761 118.505V97.8864H324.261C323.984 100.662 323.644 103.133 323.25 105.3C322.856 107.466 322.417 109.355 321.925 110.967C321.432 112.57 320.877 113.93 320.268 115.031C319.659 116.132 318.988 117.019 318.263 117.69C317.529 118.362 316.741 118.845 315.891 119.141C315.049 119.436 314.136 119.588 313.178 119.588C313.017 119.588 312.882 119.562 312.766 119.508C312.658 119.454 312.56 119.365 312.488 119.221C312.425 119.087 312.372 118.89 312.336 118.63C312.3 118.38 312.282 118.057 312.282 117.654C312.282 117.234 312.291 116.894 312.318 116.634C312.345 116.374 312.39 116.159 312.452 116.007C312.515 115.846 312.596 115.748 312.685 115.694C312.784 115.64 312.9 115.613 313.043 115.613C313.625 115.613 314.172 115.479 314.7 115.211C315.219 114.933 315.711 114.485 316.168 113.867C316.625 113.25 317.054 112.435 317.457 111.432C317.851 110.42 318.218 109.185 318.559 107.717C318.89 106.249 319.203 104.53 319.499 102.56C319.794 100.599 320.081 98.3339 320.34 95.7824C320.376 95.2544 320.501 94.8692 320.725 94.6096C320.94 94.359 321.253 94.2335 321.656 94.2335H333.779C334.19 94.2335 334.522 94.359 334.755 94.6186C334.996 94.8692 335.112 95.2544 335.112 95.7824V118.505ZM360.915 118.532C360.915 118.738 360.843 118.899 360.709 119.006C360.566 119.114 360.378 119.186 360.127 119.239C359.885 119.293 359.527 119.32 359.053 119.32C358.605 119.32 358.238 119.293 357.97 119.239C357.701 119.186 357.504 119.114 357.379 119.006C357.253 118.899 357.191 118.747 357.191 118.532V116.168C356.161 117.27 355.015 118.129 353.744 118.738C352.472 119.338 351.129 119.642 349.715 119.642C348.47 119.642 347.342 119.481 346.34 119.159C345.337 118.836 344.477 118.362 343.77 117.753C343.063 117.144 342.508 116.383 342.114 115.497C341.72 114.602 341.523 113.59 341.523 112.453C341.523 111.119 341.791 109.964 342.337 108.988C342.875 108.003 343.654 107.189 344.674 106.544C345.686 105.899 346.93 105.407 348.399 105.085C349.867 104.762 351.523 104.601 353.359 104.601H356.618V102.757C356.618 101.853 356.519 101.047 356.331 100.339C356.134 99.6412 355.83 99.0592 355.4 98.5936C354.97 98.1279 354.415 97.7791 353.735 97.5463C353.054 97.3044 352.213 97.1879 351.219 97.1879C350.153 97.1879 349.196 97.3134 348.354 97.5731C347.503 97.8327 346.76 98.1102 346.125 98.4235C345.489 98.7368 344.952 99.0146 344.522 99.2742C344.101 99.5339 343.779 99.659 343.573 99.659C343.43 99.659 343.305 99.6231 343.206 99.5517C343.099 99.4889 343.009 99.3816 342.929 99.2383C342.848 99.1042 342.794 98.925 342.758 98.71C342.723 98.4862 342.705 98.2534 342.705 97.9847C342.705 97.5549 342.732 97.2061 342.794 96.9552C342.857 96.7046 343.009 96.4627 343.242 96.2389C343.475 96.0152 343.886 95.7464 344.46 95.4331C345.033 95.1289 345.704 94.8424 346.456 94.5827C347.199 94.3321 348.023 94.1171 348.918 93.947C349.804 93.7769 350.709 93.6964 351.613 93.6964C353.305 93.6964 354.746 93.8843 355.937 94.2694C357.128 94.6542 358.086 95.2275 358.82 95.9706C359.554 96.7136 360.082 97.6358 360.414 98.7368C360.745 99.8382 360.915 101.127 360.915 102.596V118.532ZM356.618 107.717H352.92C351.738 107.717 350.709 107.815 349.831 108.021C348.963 108.218 348.238 108.522 347.656 108.917C347.083 109.31 346.662 109.776 346.384 110.331C346.116 110.886 345.982 111.522 345.982 112.238C345.982 113.464 346.366 114.44 347.145 115.166C347.924 115.891 349.008 116.258 350.413 116.258C351.541 116.258 352.598 115.971 353.564 115.389C354.532 114.816 355.552 113.93 356.618 112.74V107.717Z" fill="#EDBEB8"/>
<path d="M388.258 111.71C388.258 112.954 388.025 114.064 387.55 115.031C387.076 116.007 386.378 116.813 385.446 117.476C384.524 118.129 383.37 118.63 381.991 118.971C380.603 119.311 378.991 119.481 377.156 119.481C376.583 119.481 376.019 119.481 375.482 119.472C374.936 119.463 374.407 119.445 373.906 119.418C373.396 119.392 372.894 119.356 372.393 119.32C371.901 119.293 371.399 119.248 370.916 119.195C370.208 119.105 369.698 118.872 369.367 118.496C369.036 118.12 368.866 117.565 368.866 116.831V96.5076C368.866 95.7914 369.027 95.2362 369.349 94.8515C369.671 94.4663 370.173 94.2425 370.835 94.1707C371.292 94.1171 371.775 94.0725 372.294 94.0366C372.805 94.0097 373.333 93.9738 373.879 93.947C374.425 93.9202 374.98 93.9024 375.562 93.8843C376.135 93.8665 376.717 93.8574 377.317 93.8574C379.018 93.8574 380.486 94.0007 381.722 94.2785C382.967 94.5559 383.996 94.9679 384.82 95.5049C385.643 96.0511 386.252 96.7136 386.646 97.5013C387.04 98.2893 387.237 99.1847 387.237 100.196C387.237 101.521 386.879 102.658 386.172 103.607C385.465 104.547 384.417 105.219 383.038 105.622C384.766 105.989 386.073 106.696 386.951 107.744C387.819 108.8 388.258 110.116 388.258 111.71ZM383.047 100.76C383.047 100.187 382.939 99.6772 382.734 99.2202C382.519 98.7727 382.179 98.3876 381.695 98.0742C381.212 97.7609 380.585 97.5281 379.824 97.3671C379.063 97.2148 378.141 97.1343 377.049 97.1343C376.225 97.1343 375.473 97.152 374.792 97.197C374.103 97.2416 373.53 97.2953 373.056 97.3403V104.655H377.469C379.278 104.655 380.657 104.324 381.615 103.652C382.572 102.98 383.047 102.014 383.047 100.76ZM383.799 111.772C383.799 111.074 383.674 110.456 383.432 109.928C383.19 109.391 382.796 108.952 382.268 108.603C381.731 108.254 381.05 107.994 380.218 107.815C379.394 107.645 378.409 107.556 377.272 107.556H373.056V115.918C373.387 115.971 373.736 116.007 374.094 116.034C374.452 116.061 374.819 116.088 375.195 116.115C375.571 116.142 375.938 116.159 376.314 116.177C376.69 116.195 377.04 116.204 377.353 116.204C378.49 116.204 379.457 116.106 380.263 115.9C381.069 115.703 381.731 115.408 382.268 115.022C382.796 114.637 383.19 114.172 383.432 113.626C383.674 113.071 383.799 112.453 383.799 111.772ZM413.828 118.693C413.828 118.792 413.801 118.89 413.738 118.962C413.675 119.042 413.559 119.114 413.398 119.159C413.228 119.212 413.013 119.257 412.735 119.284C412.467 119.311 412.117 119.32 411.697 119.32C411.213 119.32 410.81 119.302 410.506 119.266C410.202 119.231 409.951 119.186 409.754 119.123C409.566 119.06 409.423 118.98 409.342 118.89C409.252 118.792 409.19 118.684 409.154 118.559L406.647 112.444C406.334 111.656 406.002 110.985 405.645 110.412C405.286 109.847 404.875 109.382 404.4 109.033C403.934 108.684 403.406 108.433 402.806 108.272C402.215 108.119 401.544 108.039 400.774 108.039H398.948V118.666C398.948 118.756 398.903 118.836 398.813 118.926C398.724 119.015 398.598 119.087 398.42 119.132C398.24 119.186 398.017 119.231 397.73 119.266C397.452 119.302 397.13 119.32 396.763 119.32C396.387 119.32 396.065 119.302 395.787 119.266C395.501 119.231 395.277 119.186 395.098 119.132C394.919 119.087 394.794 119.015 394.713 118.926C394.632 118.836 394.597 118.747 394.597 118.666V94.6723C394.597 94.5918 394.632 94.5022 394.713 94.4304C394.794 94.3499 394.919 94.2785 395.098 94.2335C395.277 94.1798 395.501 94.1352 395.787 94.1084C396.065 94.0812 396.387 94.0725 396.763 94.0725C397.13 94.0725 397.452 94.0812 397.73 94.1084C398.017 94.1352 398.24 94.1798 398.42 94.2335C398.598 94.2785 398.724 94.3499 398.813 94.4304C398.903 94.5022 398.948 94.5918 398.948 94.6814V104.601H400.774C401.428 104.601 402.037 104.53 402.583 104.377C403.129 104.225 403.63 103.984 404.078 103.643C404.534 103.294 404.937 102.855 405.286 102.309C405.645 101.763 405.976 101.11 406.271 100.339L408.456 94.887C408.492 94.7437 408.554 94.6273 408.635 94.52C408.724 94.4126 408.859 94.3231 409.029 94.2603C409.208 94.1889 409.441 94.1352 409.727 94.1084C410.014 94.0812 410.398 94.0725 410.873 94.0725C411.285 94.0725 411.634 94.0812 411.903 94.1084C412.171 94.1352 412.386 94.1798 412.538 94.2335C412.682 94.2785 412.78 94.3499 412.834 94.4304C412.888 94.5022 412.914 94.5918 412.914 94.6723C412.914 94.8333 412.896 95.0034 412.852 95.1735C412.807 95.3526 412.744 95.5495 412.655 95.7823L410.398 100.984C410.049 101.861 409.674 102.596 409.262 103.196C408.85 103.786 408.438 104.288 408.017 104.682C407.605 105.076 407.176 105.38 406.737 105.604C406.307 105.819 405.886 105.989 405.483 106.114V106.168C406.092 106.374 406.656 106.625 407.176 106.92C407.695 107.224 408.169 107.591 408.617 108.021C409.065 108.46 409.476 108.979 409.861 109.588C410.247 110.188 410.604 110.877 410.945 111.665L413.541 117.646C413.613 117.762 413.658 117.879 413.693 117.986C413.729 118.084 413.756 118.192 413.774 118.281C413.792 118.38 413.809 118.46 413.819 118.523C413.828 118.586 413.828 118.639 413.828 118.693ZM436.505 118.532C436.505 118.738 436.434 118.899 436.3 119.006C436.156 119.114 435.968 119.186 435.718 119.239C435.476 119.293 435.118 119.32 434.643 119.32C434.195 119.32 433.828 119.293 433.56 119.239C433.291 119.186 433.094 119.114 432.969 119.006C432.844 118.899 432.781 118.747 432.781 118.532V116.168C431.751 117.27 430.605 118.129 429.334 118.738C428.062 119.338 426.72 119.642 425.305 119.642C424.061 119.642 422.932 119.481 421.93 119.159C420.927 118.836 420.068 118.362 419.36 117.753C418.653 117.144 418.098 116.383 417.704 115.497C417.31 114.602 417.113 113.59 417.113 112.453C417.113 111.119 417.381 109.964 417.928 108.988C418.465 108.003 419.244 107.189 420.265 106.544C421.276 105.899 422.521 105.407 423.989 105.085C425.457 104.762 427.113 104.601 428.949 104.601H432.208V102.757C432.208 101.853 432.109 101.047 431.921 100.339C431.724 99.6412 431.42 99.0592 430.99 98.5936C430.56 98.1279 430.005 97.7791 429.325 97.5463C428.644 97.3044 427.803 97.1879 426.809 97.1879C425.744 97.1879 424.786 97.3134 423.944 97.5731C423.094 97.8327 422.35 98.1102 421.715 98.4235C421.079 98.7368 420.542 99.0146 420.112 99.2742C419.692 99.5339 419.369 99.659 419.163 99.659C419.02 99.659 418.895 99.6231 418.796 99.5517C418.689 99.4889 418.599 99.3816 418.519 99.2383C418.438 99.1042 418.385 98.925 418.349 98.71C418.313 98.4862 418.295 98.2534 418.295 97.9847C418.295 97.5549 418.322 97.2061 418.385 96.9551C418.447 96.7046 418.599 96.4627 418.832 96.2389C419.065 96.0152 419.476 95.7464 420.05 95.4331C420.623 95.1289 421.294 94.8424 422.046 94.5827C422.789 94.3321 423.613 94.1171 424.508 93.947C425.394 93.7769 426.299 93.6964 427.203 93.6964C428.895 93.6964 430.337 93.8843 431.528 94.2694C432.718 94.6541 433.676 95.2275 434.41 95.9705C435.144 96.7136 435.673 97.6358 436.004 98.7368C436.335 99.8382 436.505 101.127 436.505 102.596V118.532ZM432.208 107.717H428.51C427.328 107.717 426.299 107.815 425.421 108.021C424.553 108.218 423.828 108.522 423.246 108.917C422.673 109.31 422.252 109.776 421.974 110.331C421.706 110.886 421.572 111.522 421.572 112.238C421.572 113.464 421.957 114.44 422.736 115.166C423.515 115.891 424.598 116.258 426.003 116.258C427.132 116.258 428.188 115.971 429.155 115.389C430.122 114.816 431.142 113.93 432.208 112.74V107.717Z" fill="#EDBEB8"/>
</svg>
