<svg width="274" height="75" viewBox="0 0 274 75" fill="none" xmlns="http://www.w3.org/2000/svg">
<path d="M34.0734 24.1116C32.5229 22.4657 30.6915 21.0715 28.5635 20.4626C26.4011 19.8441 24.1562 20.1669 22.1776 21.2712C20.0627 22.4514 18.3265 24.3166 16.5561 25.9973C16.1593 26.3739 15.7624 26.7503 15.3659 27.1271C15.1435 27.2926 14.9459 27.5254 14.7619 27.6998C14.395 28.0478 13.8532 28.3909 13.9984 29.0016C14.0529 29.2309 14.197 29.3935 14.3391 29.5669C14.5767 29.857 14.8142 30.1473 15.052 30.4376C15.4933 30.977 15.9346 31.516 16.3761 32.055C18.1416 34.2116 19.9072 36.368 21.6728 38.5246C23.4562 40.7029 25.2397 42.8812 27.0231 45.0595C27.4612 45.595 27.8761 46.195 28.3555 46.6872C28.6649 47.0048 29.0882 46.9637 29.4091 46.6872C29.6002 46.5223 29.7814 46.3415 29.964 46.164C30.0231 46.1096 30.0807 46.0541 30.1371 45.9989C30.2887 45.8607 30.4686 45.7231 30.6018 45.5555C30.975 45.2015 31.348 44.8476 31.7208 44.4936C32.2335 44.0068 32.7464 43.5201 33.2591 43.0333C33.4868 42.8171 33.7147 42.6008 33.9427 42.3846C34.0937 42.2414 34.2907 42.0968 34.4334 41.922C35.1983 41.295 35.8656 40.3859 36.4311 39.5678C37.0441 38.681 37.552 37.7108 37.9057 36.6717C38.6499 34.4855 38.5308 32.1286 37.7698 29.9667C36.9859 27.7399 35.6404 25.7747 34.0734 24.1116ZM29.1855 42.7812C28.2856 41.682 27.3859 40.5831 26.4861 39.4842C24.7207 37.3276 22.9551 35.171 21.1894 33.0146C20.3066 31.9364 19.4238 30.858 18.541 29.7798C18.3023 29.4881 18.0637 29.1964 17.8248 28.905C18.4673 28.2947 19.1083 27.683 19.751 27.0731C20.6074 26.2605 21.4672 25.4499 22.4282 24.7807C23.3306 24.1522 24.3166 23.6475 25.3831 23.4534C26.5233 23.2461 27.7006 23.4526 28.752 23.957C30.7974 24.9374 32.5272 26.8792 33.776 28.8427C35.0453 30.838 35.7847 33.2315 35.0529 35.6086C34.3605 37.8575 32.6962 39.4602 31.0958 40.9787C30.4605 41.5814 29.8252 42.1839 29.1899 42.7866C29.1885 42.7848 29.1869 42.7829 29.1855 42.7812Z" fill="#5C7148"/>
<path d="M46.1992 35.2845C46.3385 35.2515 46.4791 35.1981 46.6139 35.1418C47.1214 34.9297 47.6053 34.6584 48.0506 34.3206C49.0896 33.5329 49.9093 32.4346 50.4004 31.1876C50.548 31.4834 50.7222 31.7601 50.9438 31.9985C51.7346 32.8476 52.8344 32.8654 53.8617 32.5968C54.1645 32.5176 54.6761 32.4127 55.0642 32.2035C55.0748 32.2 55.0838 32.1994 55.0944 32.1952C55.2758 32.1265 55.4135 31.9916 55.4958 31.8234C55.5668 31.7028 55.599 31.5631 55.5765 31.3997C55.576 31.3914 55.5769 31.3835 55.5761 31.3752C55.5481 31.0877 55.4356 30.7971 55.3626 30.5197C55.2858 30.2283 55.242 29.8797 55.1017 29.6134C54.5533 28.5739 53.2459 30.1359 52.8544 29.0806C52.612 28.4264 52.4889 27.6956 52.3102 27.0184C52.1179 26.2907 51.9257 25.563 51.7335 24.8353C51.3751 23.4776 51.0657 22.0932 50.6515 20.7539C50.3019 19.6239 49.7989 18.5338 48.9718 17.72C47.4811 16.2524 45.3989 16.0591 43.5171 16.6236C41.6264 17.1907 39.9019 18.4497 38.8162 20.2235C38.5415 20.6725 38.3159 21.1526 38.134 21.6531C37.9851 22.0628 37.7369 22.6301 37.9285 23.0638C38.043 23.323 38.2614 23.4395 38.4843 23.5779C38.7905 23.7681 39.0944 23.9632 39.4031 24.1488C39.7725 24.371 40.2381 24.4292 40.5178 24.0062C40.6492 23.8072 40.6695 23.5453 40.7321 23.3164C40.8146 23.0156 40.9176 22.722 41.0459 22.4406C41.2956 21.8933 41.6232 21.393 42.0305 20.9684C42.8326 20.1321 43.9933 19.5617 45.1138 19.5087C46.2718 19.4537 47.1072 20.0808 47.5852 21.1896C47.6894 21.4315 47.7802 21.6819 47.8634 21.9368C47.4413 22.3185 47.0324 22.7242 46.6157 23.1029C46.0119 23.6518 45.4082 24.2007 44.8059 24.7511C43.7336 25.7312 42.5853 26.6702 41.7206 27.8771C40.9976 28.8864 40.4786 30.1032 40.5351 31.4028C40.5868 32.5906 41.0672 33.8041 41.9322 34.566C42.7283 35.2676 43.7602 35.5506 44.7764 35.5202C45.1323 35.5094 45.7503 35.4799 46.1992 35.2845ZM49.1444 28.6248C48.866 29.8143 48.1378 30.8963 47.2104 31.6016C46.4181 32.2041 45.1183 32.7832 44.1713 32.2474C43.3667 31.7922 43.4413 30.6037 43.7969 29.8518C44.0717 29.2708 44.5474 28.8234 44.9935 28.3964C45.5916 27.8247 46.1963 27.2603 46.7976 26.6925C47.3937 26.1289 47.9898 25.5653 48.5861 25.0017C48.6044 24.9843 48.6231 24.9667 48.6414 24.9493C48.8255 25.6762 49.0105 26.4028 49.1969 27.1287C49.2471 27.6354 49.2663 28.1042 49.1444 28.6248Z" fill="#5C7148"/>
<path d="M55.8896 10.2594C55.9257 10.6208 55.8955 11.0974 56.0884 11.4127C56.2885 11.74 56.5979 11.7913 56.9329 11.7589C57.4025 11.7139 57.9274 11.7042 58.3852 11.5842C58.4607 11.5645 58.5294 11.5329 58.5934 11.4946C58.613 11.4835 58.6286 11.4685 58.6468 11.4555C58.712 11.4081 58.7692 11.3514 58.8163 11.2832C58.8199 11.2778 58.8249 11.2734 58.8285 11.2676C58.8566 11.2246 58.8783 11.1756 58.8983 11.1249C58.8995 11.121 58.9013 11.1176 58.9028 11.1137C58.9116 11.0903 58.9243 11.0703 58.9313 11.0452C58.9398 11.0148 58.9407 10.9856 58.9459 10.9556C58.9477 10.9469 58.9486 10.938 58.9502 10.9291C58.9562 10.8888 58.9626 10.8483 58.9632 10.8091C58.9689 10.7305 58.9704 10.6502 58.9626 10.5675C58.8729 9.58764 58.8239 9.26191 58.7261 8.28318C58.6915 7.93501 58.684 7.58877 58.4165 7.34781C58.1235 7.08421 57.7667 7.17537 57.4172 7.21602C56.8037 7.28685 55.7398 7.18834 55.6785 8.10146C55.6485 8.54544 55.7594 9.04069 55.8037 9.48331C55.8513 9.95942 55.842 9.78331 55.8896 10.2594Z" fill="#5C7148"/>
<path d="M59.137 13.9851C58.8452 13.6526 58.4541 13.7451 58.0742 13.7892C57.6559 13.8376 57.1174 13.7954 56.7382 14.0031C56.3834 14.1974 56.3212 14.5614 56.3503 14.952C56.4326 16.0552 56.5707 17.1572 56.6809 18.2576C56.9067 20.5164 57.1324 22.7758 57.3582 25.0346C57.485 26.3021 57.6115 27.569 57.7382 28.8363C57.8044 29.4974 57.8704 30.1585 57.9365 30.8198C57.9786 31.2416 58.0413 31.6697 58.4654 31.8289C58.6689 31.9054 58.8776 31.8626 59.0865 31.8386C59.3919 31.803 59.6973 31.7678 60.0025 31.7324C60.1841 31.7115 60.3637 31.6927 60.5206 31.6275C60.5242 31.6263 60.5273 31.6244 60.5305 31.623C60.5738 31.6044 60.6148 31.5814 60.6536 31.5545C60.668 31.545 60.6822 31.5363 60.6961 31.5257C60.7004 31.522 60.7043 31.5172 60.7086 31.5133C60.7478 31.4814 60.7863 31.4479 60.8194 31.4064C61.0142 31.1608 60.9851 30.8746 60.9553 30.5756C60.8974 29.9967 60.8395 29.4184 60.7818 28.8399C60.666 27.6828 60.5503 26.5256 60.4345 25.3686C60.2085 23.1098 59.9828 20.8508 59.7568 18.5919C59.6437 17.4622 59.531 16.3329 59.4178 15.2032C59.378 14.8055 59.4117 14.2978 59.137 13.9851Z" fill="#5C7148"/>
<path d="M64.7395 31.6813C65.0711 31.7094 65.4026 31.7401 65.7345 31.7647C65.9248 31.7788 66.105 31.7877 66.2759 31.6813C66.4683 31.5617 66.5766 31.3426 66.6029 31.1115C66.6101 31.0794 66.6228 31.0505 66.6273 31.0171C66.7235 30.2969 66.7356 29.5516 66.788 28.8258C66.8918 27.393 66.9955 25.9601 67.0992 24.5269C67.3108 21.6058 67.5222 19.0538 67.7338 16.1328C67.8395 14.6723 67.9454 13.2117 68.0511 11.751C68.103 11.0311 68.1551 10.3115 68.2073 9.59173C68.2335 9.23136 68.2661 8.87079 68.2856 8.51003C68.2989 8.26191 68.291 8.05039 68.137 7.85085C67.7978 7.4119 67.105 7.50421 66.6342 7.46492C66.1571 7.42505 65.6331 7.30623 65.3694 7.84911C65.2554 8.08387 65.2656 8.37205 65.2471 8.62907C65.2193 9.01479 65.1912 9.4007 65.1632 9.78642C65.1114 10.5029 65.0594 11.2196 65.0077 11.9359C64.7963 14.8572 64.5847 17.7782 64.3733 20.6991C64.1635 23.5951 63.9541 26.1213 63.7445 29.017C63.7182 29.3776 63.6922 29.7382 63.6659 30.0985C63.6445 30.3942 63.5642 30.7521 63.6291 31.0442C63.7538 31.6058 64.3027 31.6449 64.7395 31.6813Z" fill="#5C7148"/>
<path d="M68.8812 40.7916C70.7441 41.0723 72.386 40.1692 73.5991 38.6871C74.3494 37.7703 76.4582 34.6733 77.1034 33.671C77.8465 32.5165 78.5911 31.363 79.3355 30.2093C80.8358 27.8843 82.3362 25.5592 83.8365 23.2342C84.5858 22.0731 85.335 20.9121 86.0843 19.7511C86.3507 19.3382 86.7413 18.921 86.5058 18.3924C86.2887 17.9047 85.7334 17.8822 85.2996 17.7723C84.8597 17.6608 84.2469 17.3572 83.8186 17.6523C83.6347 17.7789 83.5227 18.0005 83.4029 18.1894C83.216 18.4845 83.0289 18.7793 82.8417 19.0743C82.1079 20.2312 81.3734 21.3878 80.6396 22.5446C79.1774 24.85 77.7178 27.1568 76.268 29.4714C76.0384 27.5406 75.7986 25.6114 75.5455 23.6843C75.3654 22.312 75.1813 20.9404 74.9967 19.5687C74.82 18.255 74.685 16.9248 74.4664 15.6186C74.3773 15.0862 74.0934 14.9364 73.6298 14.8193C73.3355 14.745 73.0414 14.6705 72.7472 14.596C72.4951 14.5323 72.2099 14.4133 71.9479 14.4765C71.6371 14.5514 71.4207 14.8417 71.3824 15.1758C71.3524 15.4351 71.4223 15.7088 71.4579 15.9643C71.5115 16.3481 71.5649 16.7317 71.6184 17.1152C71.9927 19.8006 72.367 22.4861 72.7416 25.1715C72.9248 26.487 73.1083 27.8021 73.2915 29.1176L73.5667 31.0917C73.6127 31.4215 73.6587 31.751 73.7046 32.0806C73.7461 32.3791 73.7359 32.7549 73.9127 33.0038C73.9403 33.0427 73.9712 33.0756 74.0033 33.1062C73.9733 33.155 73.944 33.2055 73.9137 33.2535C73.3855 34.0834 71.3375 37.1425 70.4753 37.6211C69.581 38.1173 68.5841 37.6993 68.0376 36.8493C67.8139 36.5015 67.6525 36.1115 67.533 35.7097C67.414 35.3104 67.2312 34.9315 66.7888 34.8994C66.5252 34.88 66.3534 35.0346 66.1542 35.198C65.8928 35.4124 65.6311 35.6265 65.3701 35.8413C64.9956 36.149 64.8301 36.4438 64.9421 36.9567C65.165 37.977 65.7404 38.9252 66.4843 39.5934C66.8323 39.9062 67.2146 40.1719 67.6266 40.3755C67.918 40.5193 68.3076 40.7349 68.661 40.7529C68.7338 40.7682 68.8079 40.7804 68.8812 40.7916Z" fill="#5C7148"/>
<path d="M63.9781 44.8923C61.5914 43.8207 58.8384 44.5198 57.1998 46.6839C57.1531 46.7455 57.1105 46.8107 57.0656 46.874C57.0028 46.6471 56.927 46.4232 56.834 46.2034C56.3301 45.0102 55.388 44.0868 54.2699 43.5838C52.1194 42.6165 49.6881 43.0981 48.0271 44.7791C48.0471 44.6086 48.0667 44.4387 48.0864 44.2682C48.1285 43.9072 48.229 43.5006 48.0503 43.1619C47.8321 42.7479 47.3733 42.7746 46.9863 42.7226C46.3593 42.6388 45.3136 42.3078 45.1628 43.273C44.9879 44.3897 44.9 45.531 44.7693 46.6547C44.5009 48.9642 44.2321 51.2737 43.9636 53.5832C43.8164 54.848 43.6695 56.1126 43.5223 57.3773C43.4487 58.0098 43.3752 58.6423 43.3017 59.2744C43.2576 59.653 43.2199 60.0652 43.5232 60.3408C43.6963 60.4983 43.9111 60.5026 44.1261 60.5317C44.4308 60.5725 44.7355 60.6133 45.0404 60.6542C45.1867 60.6741 45.328 60.6961 45.4646 60.6957C45.6492 60.729 45.8414 60.6942 45.9992 60.5624C46.2546 60.3488 46.2554 60.0122 46.2928 59.6923C46.3598 59.1149 46.427 58.5374 46.4943 57.9601C46.6284 56.8054 46.7628 55.6506 46.8971 54.4961C47.0512 53.1713 47.2052 51.8469 47.3593 50.5222C47.3897 50.3778 47.4037 50.2266 47.4298 50.085C47.4999 49.7041 47.5926 49.3267 47.7143 48.9611C47.9379 48.2901 48.2669 47.6466 48.7248 47.1279C49.6475 46.0832 51.0322 45.7579 52.3047 46.1503C52.929 46.3431 53.5021 46.7313 53.8451 47.3363C54.2429 48.0377 54.3017 48.8841 54.2668 49.6859C54.2302 50.5286 54.0853 51.3631 53.9878 52.199C53.8699 53.213 53.752 54.2269 53.6341 55.2409C53.5194 56.2271 53.4045 57.2138 53.2898 58.2003C53.2325 58.6934 53.1751 59.1867 53.1178 59.6799C53.0676 60.1099 52.9623 60.5729 52.9715 61.0068C52.9914 61.9418 53.9704 61.8584 54.5989 61.9427C54.7664 61.9652 54.9388 61.9876 55.1042 61.9892C55.1807 62.0101 55.2604 62.0231 55.3442 62.0176C56.0233 61.9727 55.9893 61.1242 56.0517 60.5876C56.1669 59.5959 56.2823 58.6046 56.3976 57.6133C56.6221 55.6823 56.8423 53.7508 57.072 51.8207C57.1008 51.6805 57.1143 51.5344 57.1394 51.397C57.2095 51.0173 57.3019 50.6408 57.4226 50.276C57.6448 49.6052 57.9708 48.9597 58.4255 48.4383C59.3466 47.3828 60.73 47.0617 62.007 47.4559C62.6339 47.6493 63.2113 48.0374 63.5561 48.6453C63.9537 49.3466 64.0127 50.193 63.9778 50.9948C63.9411 51.8375 63.7962 52.672 63.699 53.5079C63.581 54.5217 63.4629 55.5354 63.345 56.5492C63.2303 57.5354 63.1155 58.5219 63.0008 59.5084C62.9434 60.0015 62.8861 60.4947 62.8287 60.988C62.7788 61.4181 62.6731 61.8808 62.6824 62.3147C62.7024 63.2493 63.681 63.1667 64.3091 63.2513C64.4768 63.2741 64.649 63.2963 64.8142 63.2981C64.891 63.319 64.9704 63.332 65.0542 63.3266C65.7333 63.2817 65.6994 62.4332 65.7619 61.8963C65.877 60.9048 65.9924 59.9133 66.1078 58.9218C66.3438 56.89 66.5745 54.8575 66.8177 52.8266C67.0282 51.0683 67.2493 49.1808 66.5442 47.5117C66.0402 46.3176 65.0972 45.395 63.9781 44.8923Z" fill="#5C7148"/>
<path d="M85.0261 54.2324C84.6563 53.9111 84.2193 53.3431 83.7013 53.3522C83.171 53.3615 83.0534 53.8227 82.9405 54.2839C82.8041 54.8415 82.611 55.3811 82.3397 55.8794C81.147 58.0722 78.1462 58.9598 76.0108 57.9344C74.6349 57.2739 73.8318 55.8382 73.3651 54.3257C73.3924 54.3187 73.4197 54.3114 73.4471 54.3044C74.1451 54.131 74.8431 53.9574 75.5411 53.7838C78.3805 53.0782 81.2452 52.4445 84.0672 51.6641C84.6191 51.5116 84.7924 51.1358 84.7433 50.5453C84.6959 49.9719 84.5992 49.403 84.4539 48.8489C84.1492 47.6854 83.645 46.5758 82.9653 45.6132C81.5819 43.654 79.5117 42.5692 77.2201 42.6564C75.2434 42.7317 73.2157 43.5748 71.8546 45.15C69.4686 47.911 69.3799 52.2422 70.6081 55.6005C71.3136 57.5297 72.4735 59.3072 74.1859 60.3296C75.103 60.8772 76.1254 61.1845 77.1678 61.2821C77.7279 61.3347 78.2929 61.3235 78.8514 61.2569C79.1671 61.2192 79.6135 61.2132 79.9464 61.0655C80.1062 61.0291 80.2658 60.9697 80.4148 60.9199C80.8867 60.7626 81.3485 60.5636 81.79 60.3246C83.5887 59.3513 84.9186 57.6519 85.558 55.6029C85.6315 55.3664 85.6901 55.1415 85.6161 54.8953C85.5253 54.5951 85.2418 54.4198 85.0261 54.2324ZM79.9604 49.7323C78.5403 50.0853 77.12 50.4383 75.6998 50.7915C74.9774 50.9711 74.2547 51.1507 73.5324 51.3305C73.3006 51.388 73.0687 51.4457 72.8369 51.5033C72.7278 49.9115 72.9881 48.3022 74.0829 47.1096C75.4327 45.6385 77.8316 45.1574 79.4747 46.3238C80.2469 46.8719 80.7988 47.7148 81.1991 48.5989C81.3104 48.8439 81.4089 49.0949 81.4977 49.35C80.9854 49.4774 80.4729 49.6049 79.9604 49.7323Z" fill="#5C7148"/>
<path d="M103.374 47.8784C103.373 47.839 103.369 47.7991 103.362 47.759C103.36 47.7503 103.359 47.7416 103.357 47.7329C103.344 47.669 103.326 47.6052 103.299 47.5419C103.182 47.2688 103.029 47.0077 102.895 46.7436C102.767 46.4893 102.657 46.1769 102.453 45.9798C102.062 45.6009 101.669 45.8285 101.28 46.0631C101.089 46.1786 100.845 46.3495 100.616 46.3255C100.299 46.2926 100.108 45.8937 99.9716 45.6286C99.3444 44.406 98.7535 43.1582 98.133 41.9306C97.5453 40.768 96.9967 39.5718 96.3629 38.4372C95.7991 37.4281 95.0966 36.4955 94.1378 35.8974C92.265 34.729 90.053 35.138 88.2622 36.2818C86.5768 37.3588 85.1991 39.0453 84.596 41.0717C84.4489 41.5656 84.3483 42.0787 84.2979 42.5946C84.2539 43.0468 84.1913 43.6003 84.6041 43.8867C84.8327 44.0452 85.1567 44.1004 85.4126 44.1861C85.6976 44.2817 85.9908 44.4143 86.2845 44.4697C86.6706 44.5422 87.0803 44.3261 87.1772 43.8945C87.2358 43.6336 87.2022 43.3359 87.2284 43.0688C87.2606 42.7377 87.3187 42.4108 87.4051 42.0913C87.5621 41.5132 87.8037 40.967 88.1341 40.4804C88.7798 39.5292 89.8172 38.7455 90.8922 38.4918C92.0448 38.2193 92.9531 38.8015 93.6048 39.7965C93.7065 39.9521 93.7984 40.117 93.8926 40.2797C93.8762 40.3041 93.86 40.3301 93.8433 40.3539C93.5976 40.704 93.3513 41.0541 93.1052 41.404C92.6436 42.0601 92.1819 42.7164 91.7214 43.3735C90.8593 44.6042 89.9033 45.8124 89.2468 47.1898C88.692 48.354 88.3557 49.6811 88.6153 50.9877C88.8524 52.1795 89.5587 53.3246 90.5635 53.9151C91.464 54.4443 92.5212 54.5151 93.51 54.2724C93.86 54.1863 94.4827 54.0204 94.9136 53.7253C95.2665 53.5876 95.6185 53.2488 95.8728 53.0268C96.2868 52.6652 96.6593 52.2463 96.9829 51.7903C97.6261 50.8834 98.0609 49.8086 98.2496 48.6884C98.4708 48.9597 98.7172 49.2013 99.0097 49.3794C99.9241 49.9366 100.933 49.7512 101.841 49.2774C102.146 49.1183 102.67 48.8814 103.02 48.5603C103.036 48.5495 103.051 48.5435 103.067 48.5315C103.275 48.3766 103.375 48.1519 103.375 47.9123C103.376 47.9013 103.374 47.8897 103.374 47.8784ZM93.0238 51.2037C91.8794 51.3703 91.2251 50.1688 91.4728 49.0664C91.6259 48.3844 92.0406 47.7776 92.4158 47.2181C92.8706 46.5403 93.3306 45.8662 93.7876 45.19C94.2422 44.5174 94.6966 43.8445 95.1509 43.1718C95.1869 43.1188 95.2228 43.0657 95.2586 43.0127C95.6131 43.7398 95.9672 44.4673 96.3256 45.1922C96.4669 45.6274 96.5232 46.0946 96.5052 46.5533C96.4265 48.5613 94.992 50.917 93.0238 51.2037Z" fill="#5C7148"/>
<path d="M108.711 42.1837C108.698 42.0376 108.639 41.8963 108.513 41.7654C108.476 41.7171 108.437 41.6698 108.394 41.6248C107.916 41.1235 107.428 40.6333 106.944 40.1378C105.978 39.1465 105.011 38.155 104.045 37.1637C102.093 35.1619 100.142 33.1599 98.1899 31.1584C97.2233 30.1669 96.2567 29.1756 95.2901 28.1843C94.8048 27.6863 94.3192 27.1881 93.8337 26.6901C93.5907 26.4409 93.35 26.1885 93.1044 25.9421C92.9318 25.7691 92.7605 25.6166 92.5148 25.5986C91.982 25.5597 91.6255 26.1803 91.3028 26.5444C90.9881 26.8999 90.5385 27.2775 90.6961 27.8336C90.7625 28.0674 90.944 28.2237 91.1022 28.3861C91.3623 28.653 91.6226 28.9199 91.8829 29.1868C92.3661 29.6826 92.8495 30.1783 93.3327 30.6739C95.2844 32.6759 97.2361 34.6779 99.1877 36.6796C101.122 38.6634 103.056 40.6476 104.99 42.6313C105.46 43.1133 105.913 43.6629 106.423 44.0949C106.818 44.4307 107.221 44.3078 107.553 43.9507C107.797 43.6875 108.271 43.2619 108.532 42.815C108.572 42.7676 108.609 42.7171 108.638 42.6609C108.723 42.4931 108.739 42.3341 108.711 42.1837Z" fill="#5C7148"/>
<path d="M61.3911 75C53.4796 75 45.5037 73.6325 37.685 70.9355C30.8792 68.5879 24.1902 65.1907 18.3413 61.1111C13.0047 57.3893 8.46386 53.1946 5.20926 48.9808C1.92339 44.7263 0.186523 40.7564 0.186523 37.5001C0.186523 34.2436 1.92339 30.2738 5.20926 26.0192C8.46386 21.8055 13.0047 17.6107 18.3413 13.8887C24.1902 9.80933 30.8792 6.41235 37.685 4.06453C45.5037 1.36756 53.4796 0 61.3911 0C69.3026 0 77.2785 1.36756 85.0971 4.06453C91.9031 6.41235 98.592 9.80933 104.441 13.8887C109.777 17.6107 114.318 21.8055 117.573 26.0192C120.859 30.2738 122.596 34.2436 122.596 37.5001C122.596 40.7564 120.859 44.7263 117.573 48.9808C114.318 53.1946 109.777 57.3893 104.441 61.1111C98.592 65.1907 91.9031 68.5879 85.0971 70.9355C77.2785 73.6325 69.3026 75 61.3911 75ZM61.3911 3.00798C53.7694 3.00798 46.0802 4.32734 38.5374 6.92928C31.9633 9.19678 25.505 12.4763 19.8603 16.4133C14.7575 19.9725 10.4341 23.9594 7.3576 27.9424C4.53479 31.5972 2.98039 34.9915 2.98039 37.5001C2.98039 40.0086 4.53479 43.4028 7.3576 47.0574C10.4341 51.0409 14.7575 55.0276 19.8603 58.5866C25.505 62.5235 31.9633 65.8032 38.5374 68.0709C46.0802 70.6727 53.7694 71.9918 61.3911 71.9918C69.0129 71.9918 76.702 70.6727 84.2448 68.0709C90.8188 65.8032 97.2773 62.5235 102.922 58.5866C108.025 55.0276 112.348 51.0409 115.425 47.0574C118.247 43.4028 119.802 40.0086 119.802 37.5001C119.802 34.9915 118.247 31.5972 115.425 27.9424C112.348 23.9594 108.025 19.9725 102.922 16.4133C97.2773 12.4763 90.8188 9.19678 84.2448 6.92928C76.702 4.32734 69.0129 3.00798 61.3911 3.00798Z" fill="#5C7148"/>
<path d="M159.496 37.073C159.496 37.1235 159.484 37.1738 159.454 37.2106C159.424 37.2518 159.369 37.2886 159.292 37.3115C159.211 37.3389 159.109 37.362 158.977 37.3757C158.849 37.3894 158.683 37.3939 158.483 37.3939C158.253 37.3939 158.061 37.3848 157.917 37.3664C157.772 37.3482 157.653 37.3252 157.559 37.2931C157.469 37.2609 157.401 37.2197 157.363 37.1738C157.32 37.1235 157.291 37.0686 157.274 37.0043L156.081 33.873C155.932 33.4695 155.775 33.1258 155.604 32.8324C155.434 32.5434 155.238 32.3052 155.012 32.1263C154.791 31.9475 154.54 31.8192 154.255 31.7366C153.973 31.6586 153.654 31.6173 153.288 31.6173H152.419V37.0593C152.419 37.1051 152.398 37.1464 152.355 37.1922C152.313 37.2381 152.253 37.2747 152.168 37.2977C152.083 37.3252 151.976 37.3482 151.84 37.3664C151.708 37.3848 151.555 37.3939 151.38 37.3939C151.201 37.3939 151.048 37.3848 150.916 37.3664C150.78 37.3482 150.673 37.3252 150.588 37.2977C150.503 37.2747 150.443 37.2381 150.405 37.1922C150.367 37.1464 150.35 37.1005 150.35 37.0593V24.7726C150.35 24.7314 150.367 24.6855 150.405 24.6488C150.443 24.6075 150.503 24.571 150.588 24.5479C150.673 24.5205 150.78 24.4976 150.916 24.4839C151.048 24.4699 151.201 24.4655 151.38 24.4655C151.555 24.4655 151.708 24.4699 151.84 24.4839C151.976 24.4976 152.083 24.5205 152.168 24.5479C152.253 24.571 152.313 24.6075 152.355 24.6488C152.398 24.6855 152.419 24.7314 152.419 24.7773V29.8569H153.288C153.599 29.8569 153.888 29.8203 154.148 29.7423C154.408 29.6643 154.646 29.5407 154.859 29.3663C155.076 29.1876 155.268 28.9629 155.434 28.6833C155.604 28.4036 155.762 28.069 155.902 27.6746L156.941 24.8826C156.959 24.8092 156.988 24.7496 157.027 24.6946C157.069 24.6397 157.133 24.5938 157.214 24.5617C157.299 24.5251 157.41 24.4976 157.546 24.4839C157.682 24.4699 157.865 24.4655 158.091 24.4655C158.287 24.4655 158.453 24.4699 158.581 24.4839C158.709 24.4976 158.811 24.5205 158.883 24.5479C158.951 24.571 158.998 24.6075 159.024 24.6488C159.049 24.6855 159.062 24.7314 159.062 24.7726C159.062 24.8551 159.054 24.9422 159.032 25.0293C159.011 25.121 158.981 25.2218 158.939 25.3411L157.865 28.0047C157.699 28.4539 157.521 28.83 157.325 29.1371C157.129 29.4396 156.933 29.6965 156.733 29.8981C156.537 30.1 156.333 30.2558 156.124 30.3704C155.92 30.4805 155.719 30.5676 155.528 30.6316V30.6591C155.817 30.7646 156.086 30.8931 156.333 31.0443C156.579 31.2003 156.805 31.3882 157.018 31.6082C157.231 31.8329 157.427 32.0989 157.61 32.4105C157.793 32.7176 157.963 33.0706 158.125 33.4741L159.36 36.5367C159.394 36.5963 159.416 36.6559 159.433 36.7109C159.45 36.7612 159.462 36.8164 159.471 36.8623C159.479 36.9126 159.488 36.9538 159.492 36.9859C159.496 37.018 159.496 37.0455 159.496 37.073ZM167.306 37.3115L165.811 41.763C165.76 41.9053 165.632 42.0152 165.428 42.0932C165.228 42.171 164.917 42.2078 164.5 42.2078C164.283 42.2078 164.108 42.1987 163.976 42.1757C163.844 42.1528 163.742 42.1116 163.669 42.0611C163.601 42.0061 163.563 41.9328 163.555 41.8457C163.546 41.754 163.567 41.6485 163.614 41.5202L165.164 37.3115C165.087 37.2747 165.015 37.2153 164.951 37.1373C164.883 37.0546 164.836 36.9722 164.815 36.8804L160.808 25.3273C160.74 25.1394 160.71 24.988 160.71 24.8826C160.71 24.7726 160.74 24.69 160.808 24.6259C160.876 24.5617 160.983 24.5205 161.132 24.4976C161.281 24.4746 161.481 24.4655 161.732 24.4655C161.979 24.4655 162.175 24.4699 162.32 24.4839C162.46 24.4976 162.571 24.5251 162.656 24.5617C162.737 24.5938 162.797 24.6488 162.835 24.713C162.873 24.7817 162.912 24.8735 162.954 24.988L166.161 34.689H166.199L169.29 24.9377C169.341 24.7634 169.401 24.6534 169.473 24.6075C169.542 24.5572 169.648 24.5205 169.789 24.4976C169.933 24.4746 170.138 24.4655 170.402 24.4655C170.636 24.4655 170.828 24.4746 170.977 24.4976C171.126 24.5205 171.236 24.5617 171.304 24.6259C171.377 24.69 171.411 24.7726 171.411 24.8826C171.411 24.988 171.385 25.1257 171.338 25.2861L167.306 37.3115ZM182.167 36.9768C182.167 37.0502 182.15 37.1098 182.116 37.1601C182.082 37.206 182.031 37.2518 181.954 37.2886C181.882 37.3205 181.775 37.3482 181.644 37.3664C181.511 37.3848 181.345 37.3939 181.145 37.3939C180.937 37.3939 180.766 37.3848 180.634 37.3664C180.502 37.3482 180.396 37.3205 180.315 37.2886C180.238 37.2518 180.183 37.206 180.149 37.1601C180.115 37.1098 180.098 37.0502 180.098 36.9768V26.4185H177.006C176.874 27.8397 176.712 29.105 176.525 30.2146C176.338 31.3239 176.129 32.2912 175.895 33.1165C175.661 33.9373 175.397 34.634 175.107 35.198C174.817 35.7618 174.498 36.2158 174.153 36.5595C173.804 36.9035 173.429 37.151 173.025 37.3023C172.624 37.4535 172.19 37.5315 171.734 37.5315C171.658 37.5315 171.594 37.5178 171.539 37.4903C171.488 37.4628 171.441 37.4169 171.407 37.3436C171.377 37.2747 171.351 37.1738 171.334 37.0409C171.317 36.9126 171.309 36.7475 171.309 36.5412C171.309 36.3258 171.313 36.1516 171.326 36.0186C171.338 35.8857 171.36 35.7755 171.39 35.6977C171.419 35.6151 171.458 35.5648 171.5 35.5373C171.547 35.5098 171.603 35.4959 171.671 35.4959C171.948 35.4959 172.207 35.4272 172.458 35.2897C172.705 35.1475 172.94 34.9183 173.157 34.6019C173.374 34.2857 173.578 33.8684 173.77 33.3549C173.957 32.8368 174.132 32.2041 174.294 31.4524C174.451 30.7005 174.6 29.8203 174.741 28.8116C174.881 27.8075 175.018 26.6477 175.141 25.3411C175.158 25.0707 175.218 24.8735 175.324 24.7405C175.426 24.6122 175.575 24.5479 175.767 24.5479H181.533C181.729 24.5479 181.886 24.6122 181.997 24.7452C182.112 24.8735 182.167 25.0707 182.167 25.3411V36.9768ZM195.972 36.9906C195.972 37.0546 195.955 37.1142 195.921 37.1647C195.887 37.2197 195.836 37.2609 195.76 37.2931C195.687 37.3252 195.581 37.3482 195.449 37.3664C195.317 37.3848 195.151 37.3939 194.95 37.3939C194.75 37.3939 194.584 37.3848 194.452 37.3664C194.32 37.3482 194.209 37.3252 194.129 37.2931C194.043 37.2609 193.988 37.2197 193.954 37.1647C193.92 37.1098 193.903 37.0546 193.903 36.9906V30.0311C193.903 29.6781 193.911 29.3251 193.928 28.9583C193.946 28.5962 193.967 28.2432 193.992 27.8902C193.801 28.2523 193.588 28.6006 193.362 28.9492C193.132 29.2929 192.902 29.6368 192.672 29.9761L187.916 36.9906C187.856 37.0639 187.805 37.1235 187.758 37.1785C187.711 37.2335 187.652 37.2747 187.584 37.3068C187.511 37.3389 187.422 37.362 187.311 37.3757C187.205 37.3894 187.068 37.3939 186.911 37.3939C186.728 37.3939 186.574 37.3848 186.46 37.3664C186.34 37.3482 186.247 37.3252 186.178 37.2931C186.106 37.2609 186.055 37.2197 186.025 37.1647C185.995 37.1098 185.983 37.0546 185.983 36.9906V24.8688C185.983 24.8048 185.995 24.7496 186.025 24.6946C186.055 24.6397 186.11 24.5938 186.191 24.5617C186.268 24.5251 186.374 24.4976 186.511 24.4839C186.643 24.4699 186.804 24.4655 187 24.4655C187.401 24.4655 187.677 24.4976 187.826 24.5663C187.975 24.635 188.052 24.7359 188.052 24.8688V31.8695C188.052 32.2179 188.044 32.5665 188.027 32.9102C188.009 33.2587 187.988 33.598 187.963 33.9417C188.154 33.598 188.35 33.2678 188.546 32.9377C188.738 32.6123 188.951 32.2912 189.172 31.9796L193.992 24.8688C194.039 24.7955 194.09 24.7359 194.146 24.6855C194.201 24.635 194.265 24.5938 194.346 24.5663C194.422 24.5342 194.516 24.5158 194.627 24.5021C194.733 24.4883 194.874 24.4792 195.048 24.4792C195.223 24.4792 195.372 24.4883 195.491 24.5021C195.615 24.5158 195.708 24.5388 195.781 24.5754C195.849 24.6122 195.9 24.6534 195.93 24.7084C195.96 24.7633 195.972 24.823 195.972 24.8963V36.9906ZM209.629 36.9768C209.629 37.0502 209.612 37.1098 209.578 37.1601C209.544 37.206 209.492 37.2518 209.416 37.2886C209.339 37.3205 209.237 37.3482 209.101 37.3664C208.969 37.3848 208.803 37.3939 208.602 37.3939C208.389 37.3939 208.219 37.3848 208.087 37.3664C207.951 37.3482 207.849 37.3205 207.772 37.2886C207.695 37.2518 207.644 37.206 207.61 37.1601C207.576 37.1098 207.559 37.0502 207.559 36.9768V31.6725H201.862V36.9768C201.862 37.0502 201.845 37.1098 201.811 37.1601C201.776 37.206 201.725 37.2518 201.649 37.2886C201.572 37.3205 201.47 37.3482 201.334 37.3664C201.202 37.3848 201.031 37.3939 200.823 37.3939C200.618 37.3939 200.452 37.3848 200.32 37.3664C200.184 37.3482 200.077 37.3205 200.001 37.2886C199.92 37.2518 199.864 37.206 199.835 37.1601C199.805 37.1098 199.792 37.0502 199.792 36.9768V24.8826C199.792 24.8092 199.805 24.7496 199.835 24.6993C199.864 24.6534 199.92 24.6076 200.001 24.5663C200.077 24.5251 200.184 24.4976 200.32 24.4839C200.452 24.4699 200.618 24.4655 200.823 24.4655C201.031 24.4655 201.202 24.4699 201.334 24.4839C201.47 24.4976 201.572 24.5251 201.649 24.5663C201.725 24.6076 201.776 24.6534 201.811 24.6993C201.845 24.7496 201.862 24.8092 201.862 24.8826V29.8019H207.559V24.8826C207.559 24.8092 207.576 24.7496 207.61 24.6993C207.644 24.6534 207.695 24.6076 207.772 24.5663C207.849 24.5251 207.951 24.4976 208.087 24.4839C208.219 24.4699 208.389 24.4655 208.602 24.4655C208.803 24.4655 208.969 24.4699 209.101 24.4839C209.237 24.4976 209.339 24.5251 209.416 24.5663C209.492 24.6076 209.544 24.6534 209.578 24.6993C209.612 24.7496 209.629 24.8092 209.629 24.8826V36.9768ZM221.909 36.9906C221.909 37.096 221.875 37.1785 221.812 37.2335C221.743 37.2886 221.654 37.3252 221.535 37.3527C221.42 37.3802 221.249 37.3939 221.024 37.3939C220.811 37.3939 220.636 37.3802 220.509 37.3527C220.381 37.3252 220.287 37.2886 220.228 37.2335C220.168 37.1785 220.138 37.1005 220.138 36.9906V35.7802C219.648 36.3441 219.103 36.7843 218.499 37.096C217.894 37.4032 217.255 37.559 216.582 37.559C215.991 37.559 215.454 37.4765 214.977 37.3115C214.5 37.1464 214.091 36.9035 213.755 36.5917C213.419 36.2799 213.155 35.8903 212.967 35.4365C212.78 34.978 212.686 34.4599 212.686 33.8777C212.686 33.1945 212.814 32.603 213.074 32.1033C213.329 31.5991 213.7 31.1819 214.185 30.8517C214.666 30.5217 215.258 30.2695 215.956 30.1045C216.655 29.9394 217.443 29.8569 218.316 29.8569H219.866V28.9124C219.866 28.4495 219.819 28.0369 219.729 27.6746C219.636 27.3171 219.491 27.019 219.286 26.7806C219.082 26.5422 218.818 26.3635 218.494 26.2443C218.171 26.1204 217.77 26.0608 217.298 26.0608C216.791 26.0608 216.336 26.1251 215.935 26.2581C215.531 26.391 215.177 26.5331 214.875 26.6935C214.573 26.854 214.317 26.9962 214.113 27.1292C213.912 27.2621 213.759 27.3262 213.661 27.3262C213.593 27.3262 213.534 27.3078 213.487 27.2712C213.436 27.2391 213.393 27.1841 213.355 27.1108C213.316 27.0421 213.291 26.9503 213.274 26.8402C213.257 26.7256 213.248 26.6064 213.248 26.4688C213.248 26.2488 213.261 26.0701 213.291 25.9416C213.321 25.8133 213.393 25.6894 213.504 25.5749C213.614 25.4603 213.81 25.3227 214.083 25.1622C214.355 25.0064 214.675 24.8597 215.032 24.7268C215.386 24.5985 215.778 24.4883 216.203 24.4012C216.625 24.3141 217.055 24.2729 217.485 24.2729C218.29 24.2729 218.976 24.3691 219.542 24.5663C220.108 24.7633 220.564 25.0569 220.913 25.4374C221.262 25.8179 221.513 26.2902 221.671 26.854C221.829 27.4179 221.909 28.0781 221.909 28.83V36.9906ZM219.866 31.4524H218.107C217.545 31.4524 217.055 31.5028 216.638 31.6082C216.225 31.7091 215.88 31.8649 215.603 32.0667C215.33 32.2684 215.13 32.5068 214.998 32.791C214.871 33.0753 214.807 33.4008 214.807 33.7676C214.807 34.3956 214.99 34.8953 215.36 35.2667C215.731 35.6381 216.246 35.826 216.915 35.826C217.451 35.826 217.954 35.6793 218.413 35.3813C218.873 35.0879 219.359 34.634 219.866 34.0244V31.4524ZM236.013 30.7325C236.013 31.7915 235.906 32.7406 235.693 33.5843C235.485 34.4231 235.174 35.1384 234.761 35.7252C234.352 36.312 233.841 36.7659 233.236 37.0823C232.632 37.3985 231.938 37.559 231.158 37.559C230.826 37.559 230.52 37.5224 230.239 37.4535C229.953 37.3802 229.681 37.2702 229.408 37.1142C229.14 36.9631 228.872 36.7705 228.608 36.5367C228.34 36.3074 228.058 36.0324 227.76 35.7206V41.7768C227.76 41.8501 227.743 41.9098 227.709 41.9647C227.675 42.0199 227.624 42.0657 227.547 42.1023C227.471 42.1344 227.369 42.1619 227.232 42.1803C227.1 42.1987 226.93 42.2078 226.721 42.2078C226.517 42.2078 226.351 42.1987 226.219 42.1803C226.083 42.1619 225.976 42.1344 225.899 42.1023C225.819 42.0657 225.763 42.0199 225.733 41.9647C225.704 41.9098 225.691 41.8501 225.691 41.7768V24.8826C225.691 24.8001 225.704 24.7359 225.729 24.6855C225.755 24.6397 225.806 24.5938 225.878 24.5617C225.955 24.5251 226.048 24.4976 226.168 24.4839C226.283 24.4699 226.428 24.4655 226.594 24.4655C226.768 24.4655 226.913 24.4699 227.028 24.4839C227.139 24.4976 227.232 24.5251 227.309 24.5572C227.386 24.5938 227.437 24.6397 227.467 24.6855C227.496 24.7359 227.509 24.8001 227.509 24.8826V26.5009C227.85 26.1251 228.178 25.7995 228.493 25.5199C228.808 25.2449 229.127 25.0155 229.447 24.8323C229.766 24.6488 230.094 24.5067 230.43 24.415C230.767 24.3188 231.12 24.2729 231.495 24.2729C232.308 24.2729 232.998 24.4425 233.573 24.7817C234.143 25.1257 234.612 25.5886 234.974 26.1801C235.336 26.7715 235.6 27.4592 235.766 28.2432C235.932 29.027 236.013 29.8569 236.013 30.7325ZM233.867 30.9893C233.867 30.3704 233.824 29.7698 233.735 29.1921C233.65 28.6146 233.496 28.1009 233.287 27.6517C233.075 27.2025 232.789 26.8449 232.432 26.5743C232.074 26.3039 231.627 26.171 231.095 26.171C230.826 26.171 230.567 26.2122 230.307 26.2993C230.051 26.3864 229.787 26.5193 229.519 26.7028C229.255 26.8861 228.974 27.1292 228.684 27.4317C228.395 27.7342 228.084 28.1056 227.76 28.5457V33.3549C228.327 34.1022 228.863 34.6708 229.37 35.0695C229.881 35.4639 230.413 35.6609 230.971 35.6609C231.486 35.6609 231.929 35.528 232.3 35.2576C232.67 34.987 232.968 34.6294 233.198 34.1802C233.428 33.731 233.594 33.2313 233.705 32.6719C233.811 32.117 233.867 31.5533 233.867 30.9893ZM248.949 36.9768C248.949 37.0502 248.932 37.1098 248.898 37.1601C248.864 37.206 248.813 37.2518 248.736 37.2886C248.66 37.3205 248.558 37.3482 248.421 37.3664C248.289 37.3848 248.123 37.3939 247.923 37.3939C247.71 37.3939 247.54 37.3848 247.408 37.3664C247.272 37.3482 247.169 37.3205 247.093 37.2886C247.016 37.2518 246.965 37.206 246.931 37.1601C246.897 37.1098 246.88 37.0502 246.88 36.9768V31.6725H241.182V36.9768C241.182 37.0502 241.165 37.1098 241.131 37.1601C241.097 37.206 241.046 37.2518 240.969 37.2886C240.893 37.3205 240.791 37.3482 240.654 37.3664C240.522 37.3848 240.352 37.3939 240.143 37.3939C239.939 37.3939 239.773 37.3848 239.641 37.3664C239.505 37.3482 239.398 37.3205 239.321 37.2886C239.24 37.2518 239.185 37.206 239.155 37.1601C239.126 37.1098 239.113 37.0502 239.113 36.9768V24.8826C239.113 24.8092 239.126 24.7496 239.155 24.6993C239.185 24.6534 239.24 24.6076 239.321 24.5663C239.398 24.5251 239.505 24.4976 239.641 24.4839C239.773 24.4699 239.939 24.4655 240.143 24.4655C240.352 24.4655 240.522 24.4699 240.654 24.4839C240.791 24.4976 240.893 24.5251 240.969 24.5663C241.046 24.6076 241.097 24.6534 241.131 24.6993C241.165 24.7496 241.182 24.8092 241.182 24.8826V29.8019H246.88V24.8826C246.88 24.8092 246.897 24.7496 246.931 24.6993C246.965 24.6534 247.016 24.6076 247.093 24.5663C247.169 24.5251 247.272 24.4976 247.408 24.4839C247.54 24.4699 247.71 24.4655 247.923 24.4655C248.123 24.4655 248.289 24.4699 248.421 24.4839C248.558 24.4976 248.66 24.5251 248.736 24.5663C248.813 24.6076 248.864 24.6534 248.898 24.6993C248.932 24.7496 248.949 24.8092 248.949 24.8826V36.9768ZM261.23 36.9906C261.23 37.096 261.196 37.1785 261.132 37.2335C261.064 37.2886 260.975 37.3252 260.855 37.3527C260.74 37.3802 260.57 37.3939 260.344 37.3939C260.132 37.3939 259.957 37.3802 259.829 37.3527C259.701 37.3252 259.608 37.2886 259.548 37.2335C259.489 37.1785 259.459 37.1005 259.459 36.9906V35.7802C258.969 36.3441 258.424 36.7843 257.819 37.096C257.215 37.4032 256.576 37.559 255.903 37.559C255.311 37.559 254.775 37.4765 254.298 37.3115C253.821 37.1464 253.412 36.9035 253.076 36.5917C252.739 36.2799 252.475 35.8903 252.288 35.4365C252.101 34.978 252.007 34.4599 252.007 33.8777C252.007 33.1945 252.134 32.603 252.394 32.1033C252.65 31.5991 253.02 31.1819 253.506 30.8517C253.987 30.5217 254.579 30.2695 255.277 30.1045C255.975 29.9394 256.763 29.8569 257.636 29.8569H259.186V28.9124C259.186 28.4495 259.139 28.0369 259.05 27.6746C258.956 27.3171 258.811 27.019 258.607 26.7806C258.403 26.5422 258.139 26.3635 257.815 26.2443C257.491 26.1204 257.091 26.0608 256.618 26.0608C256.112 26.0608 255.656 26.1251 255.256 26.2581C254.851 26.391 254.498 26.5331 254.196 26.6935C253.893 26.854 253.638 26.9962 253.433 27.1292C253.233 27.2621 253.08 27.3262 252.982 27.3262C252.914 27.3262 252.854 27.3078 252.807 27.2712C252.756 27.2391 252.714 27.1841 252.675 27.1108C252.637 27.0421 252.612 26.9503 252.595 26.8402C252.577 26.7256 252.569 26.6064 252.569 26.4688C252.569 26.2488 252.582 26.0701 252.612 25.9416C252.641 25.8133 252.714 25.6894 252.824 25.5749C252.935 25.4603 253.131 25.3227 253.404 25.1622C253.676 25.0064 253.995 24.8597 254.353 24.7268C254.707 24.5985 255.098 24.4883 255.524 24.4012C255.946 24.3141 256.376 24.2729 256.806 24.2729C257.611 24.2729 258.296 24.3691 258.863 24.5663C259.429 24.7633 259.885 25.0569 260.234 25.4374C260.583 25.8179 260.834 26.2902 260.992 26.854C261.149 27.4179 261.23 28.0781 261.23 28.83V36.9906ZM259.186 31.4524H257.428C256.865 31.4524 256.376 31.5028 255.958 31.6082C255.545 31.7091 255.2 31.8649 254.924 32.0667C254.651 32.2684 254.451 32.5068 254.319 32.791C254.191 33.0753 254.128 33.4008 254.128 33.7676C254.128 34.3956 254.31 34.8953 254.681 35.2667C255.051 35.6381 255.567 35.826 256.235 35.826C256.772 35.826 257.274 35.6793 257.734 35.3813C258.194 35.0879 258.679 34.634 259.186 34.0244V31.4524ZM273.289 36.9768C273.289 37.0502 273.277 37.1098 273.247 37.1647C273.217 37.2197 273.166 37.2609 273.089 37.2931C273.013 37.3252 272.911 37.3482 272.774 37.3664C272.642 37.3848 272.468 37.3939 272.251 37.3939C272.046 37.3939 271.88 37.3848 271.748 37.3664C271.612 37.3482 271.505 37.3252 271.429 37.2931C271.348 37.2609 271.292 37.2197 271.263 37.1647C271.233 37.1142 271.22 37.0502 271.22 36.9768V31.8926H270.036C269.521 31.8926 269.121 31.9382 268.831 32.0255C268.546 32.1171 268.286 32.2638 268.06 32.4747C267.83 32.6857 267.626 32.956 267.443 33.2816C267.26 33.6071 267.085 34.006 266.919 34.4827L266.008 36.8439C265.965 36.9584 265.923 37.0546 265.872 37.1235C265.821 37.1969 265.748 37.2518 265.655 37.2931C265.561 37.3343 265.437 37.362 265.293 37.3757C265.148 37.3894 264.969 37.3939 264.752 37.3939C264.598 37.3939 264.458 37.3894 264.339 37.3802C264.22 37.3711 264.117 37.3573 264.032 37.3343C263.951 37.3114 263.887 37.2747 263.849 37.2244C263.806 37.1785 263.785 37.1142 263.785 37.0455C263.785 36.9813 263.806 36.8804 263.853 36.743C263.9 36.6054 263.994 36.3625 264.134 36.014L265.033 33.7447C265.267 33.1717 265.552 32.6764 265.893 32.2638C266.234 31.8467 266.625 31.5395 267.068 31.3423C266.259 31.1819 265.62 30.8335 265.139 30.3017C264.662 29.7652 264.424 29.0591 264.424 28.1789C264.424 27.5968 264.535 27.0696 264.76 26.5973C264.986 26.1251 265.314 25.7262 265.752 25.4007C266.187 25.0707 266.723 24.8185 267.362 24.6443C267.997 24.4699 268.725 24.3828 269.551 24.3828C269.747 24.3828 269.981 24.3875 270.241 24.3966C270.505 24.4059 270.773 24.4196 271.05 24.438C271.331 24.4562 271.599 24.4746 271.863 24.4976C272.123 24.5205 272.348 24.5388 272.54 24.5572C272.791 24.5847 272.979 24.6809 273.102 24.8551C273.226 25.0248 273.289 25.2356 273.289 25.4833V36.9768ZM271.22 26.171C270.922 26.1251 270.615 26.093 270.3 26.0792C269.989 26.0655 269.7 26.0608 269.432 26.0608C268.869 26.0608 268.401 26.1114 268.026 26.2168C267.647 26.3177 267.349 26.4688 267.119 26.6614C266.894 26.854 266.732 27.0833 266.638 27.3446C266.54 27.6012 266.493 27.8902 266.493 28.2064C266.493 28.5273 266.549 28.8209 266.659 29.0775C266.775 29.3343 266.94 29.5498 267.171 29.724C267.396 29.8981 267.69 30.0357 268.043 30.1275C268.401 30.2237 268.895 30.2695 269.534 30.2695H271.22V26.171ZM159.573 60.3412C159.573 60.4146 159.556 60.4742 159.522 60.5245C159.488 60.5704 159.437 60.6163 159.36 60.653C159.288 60.685 159.181 60.7126 159.049 60.7308C158.917 60.7492 158.751 60.7583 158.551 60.7583C158.342 60.7583 158.172 60.7492 158.04 60.7308C157.908 60.7126 157.802 60.685 157.721 60.653C157.644 60.6163 157.589 60.5704 157.555 60.5245C157.521 60.4742 157.504 60.4146 157.504 60.3412V49.7829H154.412C154.28 51.2041 154.118 52.4694 153.931 53.579C153.744 54.6884 153.535 55.6557 153.301 56.4809C153.067 57.3017 152.802 57.9985 152.513 58.5624C152.223 59.1262 151.904 59.5802 151.559 59.924C151.21 60.2679 150.835 60.5154 150.431 60.6667C150.03 60.8179 149.596 60.8959 149.14 60.8959C149.064 60.8959 149 60.8822 148.945 60.8547C148.893 60.8272 148.847 60.7813 148.812 60.708C148.783 60.6391 148.757 60.5382 148.74 60.4053C148.723 60.277 148.714 60.1119 148.714 59.9056C148.714 59.6901 148.719 59.516 148.732 59.383C148.744 59.25 148.766 59.1399 148.795 59.0621C148.825 58.9795 148.864 58.9292 148.906 58.9017C148.953 58.8742 149.008 58.8603 149.077 58.8603C149.353 58.8603 149.613 58.7915 149.864 58.6541C150.111 58.5119 150.345 58.2827 150.563 57.9663C150.78 57.6501 150.984 57.2328 151.176 56.7193C151.363 56.2012 151.538 55.5686 151.7 54.8168C151.857 54.0649 152.006 53.1847 152.147 52.176C152.287 51.1719 152.424 50.0121 152.547 48.7055C152.564 48.4351 152.624 48.2379 152.73 48.1049C152.832 47.9766 152.981 47.9123 153.173 47.9123H158.939C159.134 47.9123 159.292 47.9766 159.403 48.1096C159.518 48.2379 159.573 48.4351 159.573 48.7055V60.3412ZM171.845 60.355C171.845 60.4604 171.811 60.5429 171.747 60.5979C171.679 60.653 171.59 60.6896 171.471 60.7171C171.356 60.7446 171.185 60.7583 170.96 60.7583C170.747 60.7583 170.572 60.7446 170.444 60.7171C170.317 60.6896 170.223 60.653 170.163 60.5979C170.104 60.5429 170.074 60.4649 170.074 60.355V59.1446C169.584 59.7086 169.039 60.1486 168.434 60.4604C167.83 60.7676 167.191 60.9234 166.518 60.9234C165.926 60.9234 165.39 60.8409 164.913 60.6759C164.436 60.5108 164.027 60.2679 163.691 59.9561C163.354 59.6443 163.09 59.2547 162.903 58.8008C162.716 58.3423 162.622 57.8243 162.622 57.2421C162.622 56.5589 162.75 55.9675 163.009 55.4677C163.265 54.9636 163.635 54.5463 164.121 54.2161C164.602 53.8861 165.194 53.6339 165.892 53.4688C166.591 53.3037 167.378 53.2213 168.251 53.2213H169.801V52.2768C169.801 51.8139 169.754 51.4013 169.665 51.039C169.571 50.6815 169.427 50.3835 169.222 50.145C169.018 49.9066 168.754 49.7279 168.43 49.6087C168.107 49.4849 167.706 49.4252 167.234 49.4252C166.727 49.4252 166.271 49.4895 165.871 49.6225C165.466 49.7554 165.113 49.8975 164.811 50.0579C164.508 50.2184 164.253 50.3606 164.048 50.4936C163.848 50.6266 163.695 50.6906 163.597 50.6906C163.529 50.6906 163.469 50.6722 163.422 50.6356C163.371 50.6035 163.329 50.5485 163.291 50.4752C163.252 50.4065 163.227 50.3148 163.21 50.2046C163.193 50.0901 163.184 49.9708 163.184 49.8332C163.184 49.6132 163.197 49.4345 163.227 49.306C163.256 49.1777 163.329 49.0538 163.44 48.9393C163.55 48.8247 163.746 48.6871 164.019 48.5266C164.291 48.3708 164.611 48.2241 164.968 48.0912C165.322 47.9629 165.713 47.8527 166.139 47.7656C166.561 47.6785 166.991 47.6373 167.421 47.6373C168.226 47.6373 168.911 47.7335 169.478 47.9308C170.044 48.1278 170.5 48.4214 170.849 48.8019C171.198 49.1824 171.449 49.6546 171.607 50.2184C171.764 50.7823 171.845 51.4425 171.845 52.1944V60.355ZM169.801 54.8168H168.043C167.481 54.8168 166.991 54.8672 166.574 54.9727C166.161 55.0735 165.816 55.2293 165.539 55.4311C165.266 55.6328 165.066 55.8712 164.934 56.1554C164.806 56.4397 164.743 56.7652 164.743 57.132C164.743 57.76 164.926 58.2597 165.296 58.6311C165.667 59.0025 166.182 59.1904 166.85 59.1904C167.387 59.1904 167.889 59.0437 168.349 58.7457C168.809 58.4523 169.295 57.9984 169.801 57.3888V54.8168Z" fill="#5C7148"/>
<path d="M184.85 56.8614C184.85 57.4987 184.739 58.0671 184.514 58.5624C184.288 59.0621 183.956 59.4747 183.513 59.814C183.074 60.1486 182.525 60.4052 181.869 60.5796C181.209 60.7538 180.443 60.8409 179.57 60.8409C179.297 60.8409 179.029 60.8409 178.773 60.8363C178.514 60.8316 178.263 60.8225 178.024 60.8088C177.781 60.795 177.543 60.7767 177.304 60.7583C177.07 60.7445 176.832 60.7217 176.602 60.6942C176.265 60.6483 176.023 60.5291 175.865 60.3366C175.708 60.144 175.627 59.8599 175.627 59.4838V49.0768C175.627 48.7101 175.703 48.4258 175.857 48.2287C176.01 48.0315 176.248 47.917 176.563 47.8802C176.781 47.8527 177.011 47.8299 177.258 47.8115C177.5 47.7978 177.751 47.7794 178.011 47.7656C178.271 47.7519 178.535 47.7428 178.812 47.7335C179.084 47.7244 179.361 47.7198 179.646 47.7198C180.455 47.7198 181.154 47.7931 181.742 47.9354C182.333 48.0774 182.823 48.2884 183.215 48.5634C183.607 48.8431 183.896 49.1823 184.083 49.5857C184.271 49.9892 184.365 50.4477 184.365 50.9656C184.365 51.6441 184.194 52.2265 183.858 52.7125C183.522 53.1938 183.023 53.5377 182.367 53.7438C183.189 53.932 183.811 54.2941 184.228 54.8306C184.641 55.3715 184.85 56.0454 184.85 56.8614ZM182.372 51.2546C182.372 50.9612 182.321 50.6999 182.223 50.4659C182.12 50.2367 181.959 50.0395 181.729 49.8791C181.499 49.7186 181.201 49.5994 180.839 49.5169C180.477 49.439 180.038 49.3977 179.519 49.3977C179.127 49.3977 178.769 49.4068 178.446 49.4299C178.118 49.4527 177.845 49.4802 177.62 49.5032V53.2488H179.719C180.579 53.2488 181.235 53.0792 181.69 52.7353C182.146 52.3914 182.372 51.8963 182.372 51.2546ZM182.729 56.8935C182.729 56.536 182.67 56.2196 182.555 55.9492C182.44 55.674 182.252 55.4493 182.001 55.2707C181.746 55.0919 181.422 54.9589 181.026 54.8671C180.634 54.78 180.166 54.7342 179.625 54.7342H177.62V59.0162C177.777 59.0437 177.943 59.0621 178.114 59.0758C178.284 59.0896 178.458 59.1033 178.637 59.1171C178.816 59.1308 178.991 59.1399 179.169 59.1492C179.348 59.1583 179.514 59.1629 179.663 59.1629C180.204 59.1629 180.664 59.1124 181.047 59.0071C181.431 58.9061 181.746 58.755 182.001 58.5577C182.252 58.3605 182.44 58.1223 182.555 57.8426C182.67 57.5583 182.729 57.2421 182.729 56.8935ZM197.012 60.4374C197.012 60.4879 196.999 60.5382 196.969 60.575C196.939 60.6162 196.884 60.653 196.807 60.6758C196.726 60.7033 196.624 60.7263 196.492 60.7401C196.364 60.7538 196.198 60.7583 195.998 60.7583C195.768 60.7583 195.577 60.7492 195.432 60.7308C195.287 60.7126 195.168 60.6896 195.074 60.6575C194.985 60.6253 194.916 60.5841 194.878 60.5382C194.836 60.4879 194.806 60.433 194.789 60.3687L193.596 57.2374C193.447 56.8339 193.29 56.4902 193.12 56.1968C192.949 55.9078 192.753 55.6696 192.528 55.4907C192.306 55.3119 192.055 55.1836 191.77 55.1009C191.489 55.0229 191.169 54.9817 190.803 54.9817H189.934V60.4237C189.934 60.4695 189.913 60.5107 189.871 60.5566C189.828 60.6025 189.768 60.639 189.683 60.6621C189.598 60.6895 189.492 60.7126 189.355 60.7308C189.223 60.7492 189.07 60.7583 188.895 60.7583C188.716 60.7583 188.563 60.7492 188.431 60.7308C188.295 60.7126 188.188 60.6895 188.103 60.6621C188.018 60.639 187.959 60.6025 187.92 60.5566C187.882 60.5107 187.865 60.4649 187.865 60.4237V48.137C187.865 48.0958 187.882 48.0499 187.92 48.0132C187.959 47.9719 188.018 47.9353 188.103 47.9123C188.188 47.8848 188.295 47.862 188.431 47.8483C188.563 47.8343 188.716 47.8299 188.895 47.8299C189.07 47.8299 189.223 47.8343 189.355 47.8483C189.492 47.862 189.598 47.8848 189.683 47.9123C189.768 47.9353 189.828 47.9719 189.871 48.0132C189.913 48.0499 189.934 48.0958 189.934 48.1416V53.2213H190.803C191.114 53.2213 191.404 53.1847 191.663 53.1067C191.923 53.0287 192.161 52.9051 192.374 52.7307C192.592 52.552 192.783 52.3273 192.949 52.0477C193.12 51.768 193.277 51.4334 193.418 51.0389L194.457 48.247C194.474 48.1736 194.504 48.114 194.542 48.059C194.584 48.0041 194.648 47.9582 194.729 47.9261C194.814 47.8895 194.925 47.862 195.061 47.8483C195.198 47.8343 195.381 47.8299 195.606 47.8299C195.802 47.8299 195.968 47.8343 196.096 47.8483C196.224 47.862 196.326 47.8848 196.398 47.9123C196.467 47.9353 196.513 47.9719 196.539 48.0132C196.565 48.0499 196.577 48.0958 196.577 48.137C196.577 48.2195 196.569 48.3066 196.547 48.3937C196.526 48.4854 196.496 48.5862 196.454 48.7054L195.381 51.3691C195.215 51.8183 195.036 52.1944 194.84 52.5015C194.644 52.804 194.448 53.0609 194.248 53.2625C194.052 53.4644 193.848 53.6202 193.639 53.7347C193.435 53.8449 193.234 53.932 193.043 53.996V54.0235C193.332 54.129 193.601 54.2575 193.848 54.4086C194.095 54.5646 194.32 54.7526 194.533 54.9726C194.746 55.1973 194.942 55.4632 195.125 55.7748C195.308 56.082 195.479 56.435 195.64 56.8385L196.875 59.9011C196.909 59.9607 196.931 60.0203 196.948 60.0753C196.965 60.1256 196.977 60.1807 196.986 60.2266C196.995 60.2769 197.003 60.3182 197.007 60.3503C197.012 60.3824 197.012 60.4099 197.012 60.4374ZM207.798 60.3549C207.798 60.4604 207.764 60.5429 207.7 60.5978C207.632 60.653 207.542 60.6896 207.423 60.7171C207.308 60.7445 207.138 60.7583 206.912 60.7583C206.699 60.7583 206.524 60.7445 206.397 60.7171C206.269 60.6896 206.175 60.653 206.116 60.5978C206.056 60.5429 206.026 60.4649 206.026 60.3549V59.1446C205.536 59.7085 204.991 60.1486 204.387 60.4604C203.782 60.7675 203.143 60.9233 202.47 60.9233C201.879 60.9233 201.342 60.8409 200.865 60.6758C200.388 60.5107 199.979 60.2679 199.643 59.9561C199.307 59.6443 199.043 59.2547 198.855 58.8008C198.668 58.3423 198.574 57.8242 198.574 57.2421C198.574 56.5589 198.702 55.9674 198.962 55.4677C199.217 54.9635 199.588 54.5463 200.073 54.2161C200.554 53.8861 201.146 53.6339 201.845 53.4688C202.543 53.3037 203.331 53.2213 204.204 53.2213H205.754V52.2768C205.754 51.8139 205.707 51.4013 205.617 51.0389C205.524 50.6815 205.379 50.3834 205.174 50.145C204.97 49.9066 204.706 49.7279 204.382 49.6087C204.059 49.4848 203.658 49.4252 203.186 49.4252C202.679 49.4252 202.224 49.4895 201.823 49.6224C201.419 49.7554 201.065 49.8975 200.763 50.0579C200.461 50.2184 200.205 50.3606 200.001 50.4936C199.801 50.6265 199.647 50.6906 199.549 50.6906C199.481 50.6906 199.422 50.6722 199.375 50.6356C199.324 50.6035 199.281 50.5485 199.243 50.4752C199.205 50.4064 199.179 50.3147 199.162 50.2046C199.145 50.09 199.136 49.9708 199.136 49.8332C199.136 49.6131 199.149 49.4345 199.179 49.306C199.209 49.1777 199.281 49.0538 199.392 48.9392C199.503 48.8247 199.698 48.6871 199.971 48.5266C200.244 48.3708 200.563 48.2241 200.921 48.0911C201.274 47.9628 201.666 47.8527 202.092 47.7656C202.513 47.6785 202.943 47.6373 203.373 47.6373C204.178 47.6373 204.864 47.7335 205.43 47.9307C205.996 48.1277 206.452 48.4213 206.801 48.8018C207.15 49.1823 207.402 49.6546 207.559 50.2183C207.717 50.7823 207.798 51.4425 207.798 52.1944V60.3549ZM205.754 54.8168H203.995C203.433 54.8168 202.943 54.8671 202.526 54.9726C202.113 55.0735 201.768 55.2292 201.491 55.4311C201.219 55.6328 201.019 55.8712 200.886 56.1553C200.759 56.4396 200.695 56.7652 200.695 57.1319C200.695 57.76 200.878 58.2597 201.248 58.6311C201.619 59.0025 202.134 59.1904 202.803 59.1904C203.339 59.1904 203.842 59.0437 204.301 58.7457C204.762 58.4522 205.247 57.9984 205.754 57.3888V54.8168Z" fill="#5C7148"/>
</svg>
